<mxfile host="Electron" agent="Mozilla/5.0 (Windows NT 10.0; Win64; x64) AppleWebKit/537.36 (KHTML, like Gecko) draw.io/24.7.8 Chrome/128.0.6613.36 Electron/32.0.1 Safari/537.36" version="24.7.8" pages="2">
  <diagram id="C5RBs43oDa-KdzZeNtuy" name="Main diagram">
    <mxGraphModel dx="2577" dy="1035" grid="1" gridSize="10" guides="1" tooltips="1" connect="1" arrows="1" fold="1" page="1" pageScale="1" pageWidth="827" pageHeight="1169" math="0" shadow="0">
      <root>
        <mxCell id="WIyWlLk6GJQsqaUBKTNV-0" />
        <mxCell id="WIyWlLk6GJQsqaUBKTNV-1" parent="WIyWlLk6GJQsqaUBKTNV-0" />
        <mxCell id="zkfFHV4jXpPFQw0GAbJ--6" value="GameObject" style="swimlane;fontStyle=1;align=center;verticalAlign=top;childLayout=stackLayout;horizontal=1;startSize=26;horizontalStack=0;resizeParent=1;resizeLast=0;collapsible=1;marginBottom=0;rounded=0;shadow=0;strokeWidth=1;movable=1;resizable=1;rotatable=1;deletable=1;editable=1;locked=0;connectable=1;direction=east;" parent="WIyWlLk6GJQsqaUBKTNV-1" vertex="1">
          <mxGeometry x="320" y="540" width="160" height="153" as="geometry">
            <mxRectangle x="330" y="540" width="160" height="26" as="alternateBounds" />
          </mxGeometry>
        </mxCell>
        <mxCell id="zkfFHV4jXpPFQw0GAbJ--7" value="+name" style="text;align=left;verticalAlign=bottom;spacingLeft=4;spacingRight=4;overflow=hidden;rotatable=0;points=[[0,0.5],[1,0.5]];portConstraint=eastwest;movable=0;resizable=0;deletable=0;editable=0;locked=1;connectable=0;" parent="zkfFHV4jXpPFQw0GAbJ--6" vertex="1">
          <mxGeometry y="26" width="160" height="17" as="geometry" />
        </mxCell>
        <mxCell id="zkfFHV4jXpPFQw0GAbJ--8" value="+tag" style="text;align=left;verticalAlign=bottom;spacingLeft=4;spacingRight=4;overflow=hidden;rotatable=0;points=[[0,0.5],[1,0.5]];portConstraint=eastwest;rounded=0;shadow=0;html=0;movable=0;resizable=0;deletable=0;editable=0;locked=1;connectable=0;" parent="zkfFHV4jXpPFQw0GAbJ--6" vertex="1">
          <mxGeometry y="43" width="160" height="17" as="geometry" />
        </mxCell>
        <mxCell id="PVU13nk45NJB4w4DQgDw-1" value="+active" style="text;align=left;verticalAlign=bottom;spacingLeft=4;spacingRight=4;overflow=hidden;rotatable=0;points=[[0,0.5],[1,0.5]];portConstraint=eastwest;rounded=0;shadow=0;html=0;strokeWidth=1;horizontal=1;movable=0;resizable=0;deletable=0;editable=0;locked=1;connectable=0;" parent="zkfFHV4jXpPFQw0GAbJ--6" vertex="1">
          <mxGeometry y="60" width="160" height="17" as="geometry" />
        </mxCell>
        <mxCell id="PVU13nk45NJB4w4DQgDw-2" value="+layer" style="text;align=left;verticalAlign=bottom;spacingLeft=4;spacingRight=4;overflow=hidden;rotatable=0;points=[[0,0.5],[1,0.5]];portConstraint=eastwest;rounded=0;shadow=0;html=0;movable=0;resizable=0;deletable=0;editable=0;locked=1;connectable=0;" parent="zkfFHV4jXpPFQw0GAbJ--6" vertex="1">
          <mxGeometry y="77" width="160" height="17" as="geometry" />
        </mxCell>
        <mxCell id="zkfFHV4jXpPFQw0GAbJ--9" value="" style="line;html=1;strokeWidth=1;align=left;verticalAlign=middle;spacingTop=-1;spacingLeft=3;spacingRight=3;rotatable=0;labelPosition=right;points=[];portConstraint=eastwest;fontSize=12;perimeterSpacing=0;movable=0;resizable=0;deletable=0;editable=0;locked=1;connectable=0;" parent="zkfFHV4jXpPFQw0GAbJ--6" vertex="1">
          <mxGeometry y="94" width="160" height="8" as="geometry" />
        </mxCell>
        <mxCell id="zkfFHV4jXpPFQw0GAbJ--11" value="+AddComponent()" style="text;align=left;verticalAlign=bottom;spacingLeft=4;spacingRight=4;overflow=hidden;rotatable=0;points=[[0,0.5],[1,0.5]];portConstraint=eastwest;fontSize=12;movable=0;resizable=0;deletable=0;editable=0;locked=1;connectable=0;" parent="zkfFHV4jXpPFQw0GAbJ--6" vertex="1">
          <mxGeometry y="102" width="160" height="17" as="geometry" />
        </mxCell>
        <mxCell id="PVU13nk45NJB4w4DQgDw-3" value="+IsActiveInWorld()" style="text;align=left;verticalAlign=bottom;spacingLeft=4;spacingRight=4;overflow=hidden;rotatable=0;points=[[0,0.5],[1,0.5]];portConstraint=eastwest;fontSize=12;movable=0;resizable=0;deletable=0;editable=0;locked=1;connectable=0;" parent="zkfFHV4jXpPFQw0GAbJ--6" vertex="1">
          <mxGeometry y="119" width="160" height="17" as="geometry" />
        </mxCell>
        <mxCell id="PVU13nk45NJB4w4DQgDw-4" value="+IsActiveSelf()" style="text;align=left;verticalAlign=bottom;spacingLeft=4;spacingRight=4;overflow=hidden;rotatable=0;points=[[0,0.5],[1,0.5]];portConstraint=eastwest;fontSize=12;movable=0;resizable=0;deletable=0;editable=0;locked=1;connectable=0;" parent="zkfFHV4jXpPFQw0GAbJ--6" vertex="1">
          <mxGeometry y="136" width="160" height="17" as="geometry" />
        </mxCell>
        <mxCell id="PVU13nk45NJB4w4DQgDw-9" value="Scene" style="swimlane;fontStyle=1;align=center;verticalAlign=top;childLayout=stackLayout;horizontal=1;startSize=26;horizontalStack=0;resizeParent=1;resizeLast=0;collapsible=1;marginBottom=0;rounded=0;shadow=0;strokeWidth=1;movable=1;resizable=1;rotatable=1;deletable=1;editable=1;locked=0;connectable=1;direction=east;" parent="WIyWlLk6GJQsqaUBKTNV-1" vertex="1">
          <mxGeometry x="40" y="590" width="160" height="68" as="geometry">
            <mxRectangle x="330" y="540" width="160" height="26" as="alternateBounds" />
          </mxGeometry>
        </mxCell>
        <mxCell id="PVU13nk45NJB4w4DQgDw-82" style="text;align=left;verticalAlign=bottom;spacingLeft=4;spacingRight=4;overflow=hidden;rotatable=1;points=[[0,0.5],[1,0.5]];portConstraint=eastwest;rounded=0;shadow=0;html=0;strokeWidth=1;horizontal=1;movable=1;resizable=1;deletable=1;editable=1;locked=0;connectable=1;" parent="PVU13nk45NJB4w4DQgDw-9" vertex="1">
          <mxGeometry y="26" width="160" height="17" as="geometry" />
        </mxCell>
        <mxCell id="PVU13nk45NJB4w4DQgDw-14" value="" style="line;html=1;strokeWidth=1;align=left;verticalAlign=middle;spacingTop=-1;spacingLeft=3;spacingRight=3;rotatable=1;labelPosition=right;points=[];portConstraint=eastwest;fontSize=12;perimeterSpacing=0;movable=1;resizable=1;deletable=1;editable=1;locked=0;connectable=1;verticalLabelPosition=middle;" parent="PVU13nk45NJB4w4DQgDw-9" vertex="1">
          <mxGeometry y="43" width="160" height="8" as="geometry" />
        </mxCell>
        <mxCell id="PVU13nk45NJB4w4DQgDw-81" style="text;align=left;verticalAlign=bottom;spacingLeft=4;spacingRight=4;overflow=hidden;rotatable=1;points=[[0,0.5],[1,0.5]];portConstraint=eastwest;rounded=0;shadow=0;html=0;strokeWidth=1;horizontal=1;movable=1;resizable=1;deletable=1;editable=1;locked=0;connectable=1;" parent="PVU13nk45NJB4w4DQgDw-9" vertex="1">
          <mxGeometry y="51" width="160" height="17" as="geometry" />
        </mxCell>
        <mxCell id="PVU13nk45NJB4w4DQgDw-28" value="" style="endArrow=open;html=1;rounded=0;movable=1;resizable=1;rotatable=1;deletable=1;editable=1;locked=0;connectable=1;endFill=0;endSize=8;" parent="WIyWlLk6GJQsqaUBKTNV-1" source="PVU13nk45NJB4w4DQgDw-9" target="zkfFHV4jXpPFQw0GAbJ--6" edge="1">
          <mxGeometry width="50" height="50" relative="1" as="geometry">
            <mxPoint x="260" y="580" as="sourcePoint" />
            <mxPoint x="290" y="590" as="targetPoint" />
            <Array as="points">
              <mxPoint x="320" y="625" />
            </Array>
          </mxGeometry>
        </mxCell>
        <mxCell id="PVU13nk45NJB4w4DQgDw-39" value="+contents" style="edgeLabel;html=1;align=center;verticalAlign=middle;resizable=0;points=[];" parent="PVU13nk45NJB4w4DQgDw-28" vertex="1" connectable="0">
          <mxGeometry x="-0.1405" y="-1" relative="1" as="geometry">
            <mxPoint y="-17" as="offset" />
          </mxGeometry>
        </mxCell>
        <mxCell id="PVU13nk45NJB4w4DQgDw-40" value="1" style="edgeLabel;html=1;align=center;verticalAlign=middle;resizable=0;points=[];" parent="PVU13nk45NJB4w4DQgDw-28" vertex="1" connectable="0">
          <mxGeometry x="-0.7119" y="-1" relative="1" as="geometry">
            <mxPoint y="14" as="offset" />
          </mxGeometry>
        </mxCell>
        <mxCell id="PVU13nk45NJB4w4DQgDw-41" value="*" style="edgeLabel;html=1;align=center;verticalAlign=middle;resizable=0;points=[];" parent="PVU13nk45NJB4w4DQgDw-28" vertex="1" connectable="0">
          <mxGeometry x="0.6214" y="-1" relative="1" as="geometry">
            <mxPoint x="3" y="14" as="offset" />
          </mxGeometry>
        </mxCell>
        <mxCell id="PVU13nk45NJB4w4DQgDw-34" value="Camera" style="swimlane;fontStyle=1;align=center;verticalAlign=top;childLayout=stackLayout;horizontal=1;startSize=26;horizontalStack=0;resizeParent=1;resizeLast=0;collapsible=1;marginBottom=0;rounded=0;shadow=0;strokeWidth=1;movable=1;resizable=1;rotatable=1;deletable=1;editable=1;locked=0;connectable=1;direction=east;" parent="WIyWlLk6GJQsqaUBKTNV-1" vertex="1">
          <mxGeometry x="40" y="760" width="160" height="102" as="geometry">
            <mxRectangle x="330" y="540" width="160" height="26" as="alternateBounds" />
          </mxGeometry>
        </mxCell>
        <mxCell id="PVU13nk45NJB4w4DQgDw-78" value="+backgroundColor" style="text;align=left;verticalAlign=bottom;spacingLeft=4;spacingRight=4;overflow=hidden;rotatable=1;points=[[0,0.5],[1,0.5]];portConstraint=eastwest;rounded=0;shadow=0;html=0;strokeWidth=1;horizontal=1;movable=1;resizable=1;deletable=1;editable=1;locked=0;connectable=1;" parent="PVU13nk45NJB4w4DQgDw-34" vertex="1">
          <mxGeometry y="26" width="160" height="17" as="geometry" />
        </mxCell>
        <mxCell id="PVU13nk45NJB4w4DQgDw-77" value="+ascpectWidth" style="text;align=left;verticalAlign=bottom;spacingLeft=4;spacingRight=4;overflow=hidden;rotatable=1;points=[[0,0.5],[1,0.5]];portConstraint=eastwest;rounded=0;shadow=0;html=0;strokeWidth=1;horizontal=1;movable=1;resizable=1;deletable=1;editable=1;locked=0;connectable=1;" parent="PVU13nk45NJB4w4DQgDw-34" vertex="1">
          <mxGeometry y="43" width="160" height="17" as="geometry" />
        </mxCell>
        <mxCell id="PVU13nk45NJB4w4DQgDw-35" value="+ascpectHeight" style="text;align=left;verticalAlign=bottom;spacingLeft=4;spacingRight=4;overflow=hidden;rotatable=1;points=[[0,0.5],[1,0.5]];portConstraint=eastwest;rounded=0;shadow=0;html=0;strokeWidth=1;horizontal=1;movable=1;resizable=1;deletable=1;editable=1;locked=0;connectable=1;" parent="PVU13nk45NJB4w4DQgDw-34" vertex="1">
          <mxGeometry y="60" width="160" height="17" as="geometry" />
        </mxCell>
        <mxCell id="PVU13nk45NJB4w4DQgDw-36" value="" style="line;html=1;strokeWidth=1;align=left;verticalAlign=middle;spacingTop=-1;spacingLeft=3;spacingRight=3;rotatable=1;labelPosition=right;points=[];portConstraint=eastwest;fontSize=12;perimeterSpacing=0;movable=1;resizable=1;deletable=1;editable=1;locked=0;connectable=1;verticalLabelPosition=middle;" parent="PVU13nk45NJB4w4DQgDw-34" vertex="1">
          <mxGeometry y="77" width="160" height="8" as="geometry" />
        </mxCell>
        <mxCell id="PVU13nk45NJB4w4DQgDw-37" value="-" style="text;align=left;verticalAlign=bottom;spacingLeft=4;spacingRight=4;overflow=hidden;rotatable=1;points=[[0,0.5],[1,0.5]];portConstraint=eastwest;rounded=0;shadow=0;html=0;strokeWidth=1;horizontal=1;movable=1;resizable=1;deletable=1;editable=1;locked=0;connectable=1;" parent="PVU13nk45NJB4w4DQgDw-34" vertex="1">
          <mxGeometry y="85" width="160" height="17" as="geometry" />
        </mxCell>
        <mxCell id="PVU13nk45NJB4w4DQgDw-46" value="" style="endArrow=open;html=1;rounded=0;movable=1;resizable=1;rotatable=1;deletable=1;editable=1;locked=0;connectable=1;endFill=0;endSize=8;" parent="WIyWlLk6GJQsqaUBKTNV-1" source="PVU13nk45NJB4w4DQgDw-34" target="PVU13nk45NJB4w4DQgDw-9" edge="1">
          <mxGeometry width="50" height="50" relative="1" as="geometry">
            <mxPoint x="210" y="635" as="sourcePoint" />
            <mxPoint x="140" y="660" as="targetPoint" />
            <Array as="points" />
          </mxGeometry>
        </mxCell>
        <mxCell id="PVU13nk45NJB4w4DQgDw-47" value="+renderScene" style="edgeLabel;html=1;align=center;verticalAlign=middle;resizable=0;points=[];" parent="PVU13nk45NJB4w4DQgDw-46" vertex="1" connectable="0">
          <mxGeometry x="-0.1405" y="-1" relative="1" as="geometry">
            <mxPoint x="-41" y="-6" as="offset" />
          </mxGeometry>
        </mxCell>
        <mxCell id="PVU13nk45NJB4w4DQgDw-48" value="1..*" style="edgeLabel;html=1;align=center;verticalAlign=middle;resizable=0;points=[];" parent="PVU13nk45NJB4w4DQgDw-46" vertex="1" connectable="0">
          <mxGeometry x="-0.7119" y="-1" relative="1" as="geometry">
            <mxPoint x="-21" y="4" as="offset" />
          </mxGeometry>
        </mxCell>
        <mxCell id="PVU13nk45NJB4w4DQgDw-49" value="1" style="edgeLabel;html=1;align=center;verticalAlign=middle;resizable=0;points=[];" parent="PVU13nk45NJB4w4DQgDw-46" vertex="1" connectable="0">
          <mxGeometry x="0.6214" y="-1" relative="1" as="geometry">
            <mxPoint x="9" y="-9" as="offset" />
          </mxGeometry>
        </mxCell>
        <mxCell id="PVU13nk45NJB4w4DQgDw-50" value="" style="endArrow=block;html=1;rounded=0;movable=1;resizable=1;rotatable=1;deletable=1;editable=1;locked=0;connectable=1;endFill=0;strokeWidth=1;endSize=14;" parent="WIyWlLk6GJQsqaUBKTNV-1" source="PVU13nk45NJB4w4DQgDw-34" target="zkfFHV4jXpPFQw0GAbJ--6" edge="1">
          <mxGeometry width="50" height="50" relative="1" as="geometry">
            <mxPoint x="130" y="770" as="sourcePoint" />
            <mxPoint x="290" y="670" as="targetPoint" />
            <Array as="points" />
          </mxGeometry>
        </mxCell>
        <mxCell id="PVU13nk45NJB4w4DQgDw-54" value="UIObject" style="swimlane;fontStyle=1;align=center;verticalAlign=top;childLayout=stackLayout;horizontal=1;startSize=26;horizontalStack=0;resizeParent=1;resizeLast=0;collapsible=1;marginBottom=0;rounded=0;shadow=0;strokeWidth=1;movable=1;resizable=1;rotatable=1;deletable=1;editable=1;locked=0;connectable=1;direction=east;" parent="WIyWlLk6GJQsqaUBKTNV-1" vertex="1">
          <mxGeometry x="320" y="740" width="160" height="85" as="geometry">
            <mxRectangle x="330" y="540" width="160" height="26" as="alternateBounds" />
          </mxGeometry>
        </mxCell>
        <mxCell id="PVU13nk45NJB4w4DQgDw-86" value="+width" style="text;align=left;verticalAlign=bottom;spacingLeft=4;spacingRight=4;overflow=hidden;rotatable=1;points=[[0,0.5],[1,0.5]];portConstraint=eastwest;rounded=0;shadow=0;html=0;strokeWidth=1;horizontal=1;movable=1;resizable=1;deletable=1;editable=1;locked=0;connectable=1;" parent="PVU13nk45NJB4w4DQgDw-54" vertex="1">
          <mxGeometry y="26" width="160" height="17" as="geometry" />
        </mxCell>
        <mxCell id="PVU13nk45NJB4w4DQgDw-55" value="+height" style="text;align=left;verticalAlign=bottom;spacingLeft=4;spacingRight=4;overflow=hidden;rotatable=1;points=[[0,0.5],[1,0.5]];portConstraint=eastwest;rounded=0;shadow=0;html=0;strokeWidth=1;horizontal=1;movable=1;resizable=1;deletable=1;editable=1;locked=0;connectable=1;" parent="PVU13nk45NJB4w4DQgDw-54" vertex="1">
          <mxGeometry y="43" width="160" height="17" as="geometry" />
        </mxCell>
        <mxCell id="PVU13nk45NJB4w4DQgDw-56" value="" style="line;html=1;strokeWidth=1;align=left;verticalAlign=middle;spacingTop=-1;spacingLeft=3;spacingRight=3;rotatable=1;labelPosition=right;points=[];portConstraint=eastwest;fontSize=12;perimeterSpacing=0;movable=1;resizable=1;deletable=1;editable=1;locked=0;connectable=1;verticalLabelPosition=middle;" parent="PVU13nk45NJB4w4DQgDw-54" vertex="1">
          <mxGeometry y="60" width="160" height="8" as="geometry" />
        </mxCell>
        <mxCell id="PVU13nk45NJB4w4DQgDw-85" style="text;align=left;verticalAlign=bottom;spacingLeft=4;spacingRight=4;overflow=hidden;rotatable=1;points=[[0,0.5],[1,0.5]];portConstraint=eastwest;rounded=0;shadow=0;html=0;strokeWidth=1;horizontal=1;movable=1;resizable=1;deletable=1;editable=1;locked=0;connectable=1;" parent="PVU13nk45NJB4w4DQgDw-54" vertex="1">
          <mxGeometry y="68" width="160" height="17" as="geometry" />
        </mxCell>
        <mxCell id="PVU13nk45NJB4w4DQgDw-58" value="Button" style="swimlane;fontStyle=1;align=center;verticalAlign=top;childLayout=stackLayout;horizontal=1;startSize=26;horizontalStack=0;resizeParent=1;resizeLast=0;collapsible=1;marginBottom=0;rounded=0;shadow=0;strokeWidth=1;movable=1;resizable=1;rotatable=1;deletable=1;editable=1;locked=0;connectable=1;direction=east;" parent="WIyWlLk6GJQsqaUBKTNV-1" vertex="1">
          <mxGeometry x="230" y="880" width="160" height="85" as="geometry">
            <mxRectangle x="330" y="540" width="160" height="26" as="alternateBounds" />
          </mxGeometry>
        </mxCell>
        <mxCell id="PVU13nk45NJB4w4DQgDw-87" value="+interactable&#xa;" style="text;align=left;verticalAlign=bottom;spacingLeft=4;spacingRight=4;overflow=hidden;rotatable=1;points=[[0,0.5],[1,0.5]];portConstraint=eastwest;rounded=0;shadow=0;html=0;strokeWidth=1;horizontal=1;movable=1;resizable=1;deletable=1;editable=1;locked=0;connectable=1;" parent="PVU13nk45NJB4w4DQgDw-58" vertex="1">
          <mxGeometry y="26" width="160" height="17" as="geometry" />
        </mxCell>
        <mxCell id="PVU13nk45NJB4w4DQgDw-59" value="+onClick" style="text;align=left;verticalAlign=bottom;spacingLeft=4;spacingRight=4;overflow=hidden;rotatable=1;points=[[0,0.5],[1,0.5]];portConstraint=eastwest;rounded=0;shadow=0;html=0;strokeWidth=1;horizontal=1;movable=1;resizable=1;deletable=1;editable=1;locked=0;connectable=1;" parent="PVU13nk45NJB4w4DQgDw-58" vertex="1">
          <mxGeometry y="43" width="160" height="17" as="geometry" />
        </mxCell>
        <mxCell id="PVU13nk45NJB4w4DQgDw-60" value="" style="line;html=1;strokeWidth=1;align=left;verticalAlign=middle;spacingTop=-1;spacingLeft=3;spacingRight=3;rotatable=1;labelPosition=right;points=[];portConstraint=eastwest;fontSize=12;perimeterSpacing=0;movable=1;resizable=1;deletable=1;editable=1;locked=0;connectable=1;verticalLabelPosition=middle;" parent="PVU13nk45NJB4w4DQgDw-58" vertex="1">
          <mxGeometry y="60" width="160" height="8" as="geometry" />
        </mxCell>
        <mxCell id="PVU13nk45NJB4w4DQgDw-83" style="text;align=left;verticalAlign=bottom;spacingLeft=4;spacingRight=4;overflow=hidden;rotatable=1;points=[[0,0.5],[1,0.5]];portConstraint=eastwest;rounded=0;shadow=0;html=0;strokeWidth=1;horizontal=1;movable=1;resizable=1;deletable=1;editable=1;locked=0;connectable=1;" parent="PVU13nk45NJB4w4DQgDw-58" vertex="1">
          <mxGeometry y="68" width="160" height="17" as="geometry" />
        </mxCell>
        <mxCell id="PVU13nk45NJB4w4DQgDw-62" value="Text" style="swimlane;fontStyle=1;align=center;verticalAlign=top;childLayout=stackLayout;horizontal=1;startSize=26;horizontalStack=0;resizeParent=1;resizeLast=0;collapsible=1;marginBottom=0;rounded=0;shadow=0;strokeWidth=1;movable=1;resizable=1;rotatable=1;deletable=1;editable=1;locked=0;connectable=1;direction=east;" parent="WIyWlLk6GJQsqaUBKTNV-1" vertex="1">
          <mxGeometry x="414" y="880" width="160" height="136" as="geometry">
            <mxRectangle x="330" y="540" width="160" height="26" as="alternateBounds" />
          </mxGeometry>
        </mxCell>
        <mxCell id="PVU13nk45NJB4w4DQgDw-93" value="+text" style="text;align=left;verticalAlign=bottom;spacingLeft=4;spacingRight=4;overflow=hidden;rotatable=1;points=[[0,0.5],[1,0.5]];portConstraint=eastwest;rounded=0;shadow=0;html=0;strokeWidth=1;horizontal=1;movable=1;resizable=1;deletable=1;editable=1;locked=0;connectable=1;" parent="PVU13nk45NJB4w4DQgDw-62" vertex="1">
          <mxGeometry y="26" width="160" height="17" as="geometry" />
        </mxCell>
        <mxCell id="PVU13nk45NJB4w4DQgDw-92" value="+font: String" style="text;align=left;verticalAlign=bottom;spacingLeft=4;spacingRight=4;overflow=hidden;rotatable=1;points=[[0,0.5],[1,0.5]];portConstraint=eastwest;rounded=0;shadow=0;html=0;strokeWidth=1;horizontal=1;movable=1;resizable=1;deletable=1;editable=1;locked=0;connectable=1;" parent="PVU13nk45NJB4w4DQgDw-62" vertex="1">
          <mxGeometry y="43" width="160" height="17" as="geometry" />
        </mxCell>
        <mxCell id="PVU13nk45NJB4w4DQgDw-91" value="+size: int" style="text;align=left;verticalAlign=bottom;spacingLeft=4;spacingRight=4;overflow=hidden;rotatable=1;points=[[0,0.5],[1,0.5]];portConstraint=eastwest;rounded=0;shadow=0;html=0;strokeWidth=1;horizontal=1;movable=1;resizable=1;deletable=1;editable=1;locked=0;connectable=1;" parent="PVU13nk45NJB4w4DQgDw-62" vertex="1">
          <mxGeometry y="60" width="160" height="17" as="geometry" />
        </mxCell>
        <mxCell id="PVU13nk45NJB4w4DQgDw-90" value="+allignment" style="text;align=left;verticalAlign=bottom;spacingLeft=4;spacingRight=4;overflow=hidden;rotatable=1;points=[[0,0.5],[1,0.5]];portConstraint=eastwest;rounded=0;shadow=0;html=0;strokeWidth=1;horizontal=1;movable=1;resizable=1;deletable=1;editable=1;locked=0;connectable=1;" parent="PVU13nk45NJB4w4DQgDw-62" vertex="1">
          <mxGeometry y="77" width="160" height="17" as="geometry" />
        </mxCell>
        <mxCell id="PVU13nk45NJB4w4DQgDw-89" value="+color" style="text;align=left;verticalAlign=bottom;spacingLeft=4;spacingRight=4;overflow=hidden;rotatable=1;points=[[0,0.5],[1,0.5]];portConstraint=eastwest;rounded=0;shadow=0;html=0;strokeWidth=1;horizontal=1;movable=1;resizable=1;deletable=1;editable=1;locked=0;connectable=1;" parent="PVU13nk45NJB4w4DQgDw-62" vertex="1">
          <mxGeometry y="94" width="160" height="17" as="geometry" />
        </mxCell>
        <mxCell id="PVU13nk45NJB4w4DQgDw-64" value="" style="line;html=1;strokeWidth=1;align=left;verticalAlign=middle;spacingTop=-1;spacingLeft=3;spacingRight=3;rotatable=1;labelPosition=right;points=[];portConstraint=eastwest;fontSize=12;perimeterSpacing=0;movable=1;resizable=1;deletable=1;editable=1;locked=0;connectable=1;verticalLabelPosition=middle;" parent="PVU13nk45NJB4w4DQgDw-62" vertex="1">
          <mxGeometry y="111" width="160" height="8" as="geometry" />
        </mxCell>
        <mxCell id="PVU13nk45NJB4w4DQgDw-84" style="text;align=left;verticalAlign=bottom;spacingLeft=4;spacingRight=4;overflow=hidden;rotatable=1;points=[[0,0.5],[1,0.5]];portConstraint=eastwest;rounded=0;shadow=0;html=0;strokeWidth=1;horizontal=1;movable=1;resizable=1;deletable=1;editable=1;locked=0;connectable=1;" parent="PVU13nk45NJB4w4DQgDw-62" vertex="1">
          <mxGeometry y="119" width="160" height="17" as="geometry" />
        </mxCell>
        <mxCell id="PVU13nk45NJB4w4DQgDw-66" value="" style="endArrow=block;html=1;rounded=0;movable=1;resizable=1;rotatable=1;deletable=1;editable=1;locked=0;connectable=1;endFill=0;strokeWidth=1;endSize=14;" parent="WIyWlLk6GJQsqaUBKTNV-1" source="PVU13nk45NJB4w4DQgDw-54" target="zkfFHV4jXpPFQw0GAbJ--6" edge="1">
          <mxGeometry width="50" height="50" relative="1" as="geometry">
            <mxPoint x="210" y="770" as="sourcePoint" />
            <mxPoint x="330" y="678" as="targetPoint" />
            <Array as="points" />
          </mxGeometry>
        </mxCell>
        <mxCell id="PVU13nk45NJB4w4DQgDw-67" value="" style="endArrow=block;html=1;rounded=0;movable=1;resizable=1;rotatable=1;deletable=1;editable=1;locked=0;connectable=1;endFill=0;strokeWidth=1;endSize=14;" parent="WIyWlLk6GJQsqaUBKTNV-1" source="PVU13nk45NJB4w4DQgDw-58" target="PVU13nk45NJB4w4DQgDw-54" edge="1">
          <mxGeometry width="50" height="50" relative="1" as="geometry">
            <mxPoint x="195" y="780" as="sourcePoint" />
            <mxPoint x="384" y="810" as="targetPoint" />
            <Array as="points" />
          </mxGeometry>
        </mxCell>
        <mxCell id="PVU13nk45NJB4w4DQgDw-68" value="" style="endArrow=block;html=1;rounded=0;movable=1;resizable=1;rotatable=1;deletable=1;editable=1;locked=0;connectable=1;endFill=0;strokeWidth=1;endSize=14;" parent="WIyWlLk6GJQsqaUBKTNV-1" source="PVU13nk45NJB4w4DQgDw-62" target="PVU13nk45NJB4w4DQgDw-54" edge="1">
          <mxGeometry width="50" height="50" relative="1" as="geometry">
            <mxPoint x="205" y="790" as="sourcePoint" />
            <mxPoint x="350" y="698" as="targetPoint" />
            <Array as="points" />
          </mxGeometry>
        </mxCell>
        <mxCell id="PVU13nk45NJB4w4DQgDw-102" value="" style="endArrow=open;html=1;rounded=0;strokeColor=default;align=center;verticalAlign=middle;fontFamily=Helvetica;fontSize=11;fontColor=default;labelBackgroundColor=default;resizable=1;endFill=0;endSize=8;" parent="WIyWlLk6GJQsqaUBKTNV-1" edge="1">
          <mxGeometry width="50" height="50" relative="1" as="geometry">
            <mxPoint x="480" y="640" as="sourcePoint" />
            <mxPoint x="480" y="680" as="targetPoint" />
            <Array as="points">
              <mxPoint x="520" y="640" />
              <mxPoint x="520" y="680" />
            </Array>
          </mxGeometry>
        </mxCell>
        <mxCell id="PVU13nk45NJB4w4DQgDw-103" value="+parent &amp;gt;" style="edgeLabel;html=1;align=center;verticalAlign=middle;resizable=0;points=[];" parent="PVU13nk45NJB4w4DQgDw-102" vertex="1" connectable="0">
          <mxGeometry x="-0.719" y="3" relative="1" as="geometry">
            <mxPoint x="13" y="-4" as="offset" />
          </mxGeometry>
        </mxCell>
        <mxCell id="PVU13nk45NJB4w4DQgDw-104" value="*" style="edgeLabel;html=1;align=center;verticalAlign=middle;resizable=0;points=[];" parent="PVU13nk45NJB4w4DQgDw-102" vertex="1" connectable="0">
          <mxGeometry x="-0.0905" y="1" relative="1" as="geometry">
            <mxPoint x="-31" y="-5" as="offset" />
          </mxGeometry>
        </mxCell>
        <mxCell id="PVU13nk45NJB4w4DQgDw-105" value="0..1" style="edgeLabel;html=1;align=center;verticalAlign=middle;resizable=0;points=[];" parent="PVU13nk45NJB4w4DQgDw-102" vertex="1" connectable="0">
          <mxGeometry y="1" relative="1" as="geometry">
            <mxPoint x="-21" y="30" as="offset" />
          </mxGeometry>
        </mxCell>
        <mxCell id="PVU13nk45NJB4w4DQgDw-106" value="Transform" style="swimlane;fontStyle=1;align=center;verticalAlign=top;childLayout=stackLayout;horizontal=1;startSize=26;horizontalStack=0;resizeParent=1;resizeLast=0;collapsible=1;marginBottom=0;rounded=0;shadow=0;strokeWidth=1;movable=1;resizable=1;rotatable=1;deletable=1;editable=1;locked=0;connectable=1;direction=east;" parent="WIyWlLk6GJQsqaUBKTNV-1" vertex="1">
          <mxGeometry x="560" y="565.5" width="160" height="102" as="geometry">
            <mxRectangle x="330" y="540" width="160" height="26" as="alternateBounds" />
          </mxGeometry>
        </mxCell>
        <mxCell id="PVU13nk45NJB4w4DQgDw-111" value="+position" style="text;align=left;verticalAlign=bottom;spacingLeft=4;spacingRight=4;overflow=hidden;rotatable=1;points=[[0,0.5],[1,0.5]];portConstraint=eastwest;rounded=0;shadow=0;html=0;strokeWidth=1;horizontal=1;movable=1;resizable=1;deletable=1;editable=1;locked=0;connectable=1;" parent="PVU13nk45NJB4w4DQgDw-106" vertex="1">
          <mxGeometry y="26" width="160" height="17" as="geometry" />
        </mxCell>
        <mxCell id="PVU13nk45NJB4w4DQgDw-110" value="+rotation" style="text;align=left;verticalAlign=bottom;spacingLeft=4;spacingRight=4;overflow=hidden;rotatable=1;points=[[0,0.5],[1,0.5]];portConstraint=eastwest;rounded=0;shadow=0;html=0;strokeWidth=1;horizontal=1;movable=1;resizable=1;deletable=1;editable=1;locked=0;connectable=1;" parent="PVU13nk45NJB4w4DQgDw-106" vertex="1">
          <mxGeometry y="43" width="160" height="17" as="geometry" />
        </mxCell>
        <mxCell id="PVU13nk45NJB4w4DQgDw-107" value="+scale" style="text;align=left;verticalAlign=bottom;spacingLeft=4;spacingRight=4;overflow=hidden;rotatable=1;points=[[0,0.5],[1,0.5]];portConstraint=eastwest;rounded=0;shadow=0;html=0;strokeWidth=1;horizontal=1;movable=1;resizable=1;deletable=1;editable=1;locked=0;connectable=1;" parent="PVU13nk45NJB4w4DQgDw-106" vertex="1">
          <mxGeometry y="60" width="160" height="17" as="geometry" />
        </mxCell>
        <mxCell id="PVU13nk45NJB4w4DQgDw-108" value="" style="line;html=1;strokeWidth=1;align=left;verticalAlign=middle;spacingTop=-1;spacingLeft=3;spacingRight=3;rotatable=1;labelPosition=right;points=[];portConstraint=eastwest;fontSize=12;perimeterSpacing=0;movable=1;resizable=1;deletable=1;editable=1;locked=0;connectable=1;verticalLabelPosition=middle;" parent="PVU13nk45NJB4w4DQgDw-106" vertex="1">
          <mxGeometry y="77" width="160" height="8" as="geometry" />
        </mxCell>
        <mxCell id="PVU13nk45NJB4w4DQgDw-109" style="text;align=left;verticalAlign=bottom;spacingLeft=4;spacingRight=4;overflow=hidden;rotatable=1;points=[[0,0.5],[1,0.5]];portConstraint=eastwest;rounded=0;shadow=0;html=0;strokeWidth=1;horizontal=1;movable=1;resizable=1;deletable=1;editable=1;locked=0;connectable=1;" parent="PVU13nk45NJB4w4DQgDw-106" vertex="1">
          <mxGeometry y="85" width="160" height="17" as="geometry" />
        </mxCell>
        <mxCell id="PVU13nk45NJB4w4DQgDw-112" value="" style="endArrow=none;html=1;rounded=0;" parent="WIyWlLk6GJQsqaUBKTNV-1" source="zkfFHV4jXpPFQw0GAbJ--6" target="PVU13nk45NJB4w4DQgDw-106" edge="1">
          <mxGeometry width="50" height="50" relative="1" as="geometry">
            <mxPoint x="510" y="610" as="sourcePoint" />
            <mxPoint x="560" y="560" as="targetPoint" />
          </mxGeometry>
        </mxCell>
        <mxCell id="PVU13nk45NJB4w4DQgDw-113" value="iMouseListener" style="swimlane;fontStyle=1;align=center;verticalAlign=top;childLayout=stackLayout;horizontal=1;startSize=26;horizontalStack=0;resizeParent=1;resizeLast=0;collapsible=1;marginBottom=0;rounded=0;shadow=0;strokeWidth=1;movable=1;resizable=1;rotatable=1;deletable=1;editable=1;locked=0;connectable=1;direction=east;" parent="WIyWlLk6GJQsqaUBKTNV-1" vertex="1">
          <mxGeometry x="640" y="880" width="160" height="119" as="geometry">
            <mxRectangle x="330" y="540" width="160" height="26" as="alternateBounds" />
          </mxGeometry>
        </mxCell>
        <mxCell id="PVU13nk45NJB4w4DQgDw-114" style="text;align=left;verticalAlign=bottom;spacingLeft=4;spacingRight=4;overflow=hidden;rotatable=1;points=[[0,0.5],[1,0.5]];portConstraint=eastwest;rounded=0;shadow=0;html=0;strokeWidth=1;horizontal=1;movable=1;resizable=1;deletable=1;editable=1;locked=0;connectable=1;" parent="PVU13nk45NJB4w4DQgDw-113" vertex="1">
          <mxGeometry y="26" width="160" height="17" as="geometry" />
        </mxCell>
        <mxCell id="PVU13nk45NJB4w4DQgDw-115" value="" style="line;html=1;strokeWidth=1;align=left;verticalAlign=middle;spacingTop=-1;spacingLeft=3;spacingRight=3;rotatable=1;labelPosition=right;points=[];portConstraint=eastwest;fontSize=12;perimeterSpacing=0;movable=1;resizable=1;deletable=1;editable=1;locked=0;connectable=1;verticalLabelPosition=middle;" parent="PVU13nk45NJB4w4DQgDw-113" vertex="1">
          <mxGeometry y="43" width="160" height="8" as="geometry" />
        </mxCell>
        <mxCell id="PVU13nk45NJB4w4DQgDw-116" value="+OnMouseMoved()" style="text;align=left;verticalAlign=bottom;spacingLeft=4;spacingRight=4;overflow=hidden;rotatable=1;points=[[0,0.5],[1,0.5]];portConstraint=eastwest;rounded=0;shadow=0;html=0;strokeWidth=1;horizontal=1;movable=1;resizable=1;deletable=1;editable=1;locked=0;connectable=1;" parent="PVU13nk45NJB4w4DQgDw-113" vertex="1">
          <mxGeometry y="51" width="160" height="17" as="geometry" />
        </mxCell>
        <mxCell id="PVU13nk45NJB4w4DQgDw-121" value="+OnMouseClicked()" style="text;align=left;verticalAlign=bottom;spacingLeft=4;spacingRight=4;overflow=hidden;rotatable=1;points=[[0,0.5],[1,0.5]];portConstraint=eastwest;rounded=0;shadow=0;html=0;strokeWidth=1;horizontal=1;movable=1;resizable=1;deletable=1;editable=1;locked=0;connectable=1;" parent="PVU13nk45NJB4w4DQgDw-113" vertex="1">
          <mxGeometry y="68" width="160" height="17" as="geometry" />
        </mxCell>
        <mxCell id="PVU13nk45NJB4w4DQgDw-122" value="+OnMousePressed()" style="text;align=left;verticalAlign=bottom;spacingLeft=4;spacingRight=4;overflow=hidden;rotatable=1;points=[[0,0.5],[1,0.5]];portConstraint=eastwest;rounded=0;shadow=0;html=0;strokeWidth=1;horizontal=1;movable=1;resizable=1;deletable=1;editable=1;locked=0;connectable=1;" parent="PVU13nk45NJB4w4DQgDw-113" vertex="1">
          <mxGeometry y="85" width="160" height="17" as="geometry" />
        </mxCell>
        <mxCell id="PVU13nk45NJB4w4DQgDw-123" value="+OnMouseReleased()" style="text;align=left;verticalAlign=bottom;spacingLeft=4;spacingRight=4;overflow=hidden;rotatable=1;points=[[0,0.5],[1,0.5]];portConstraint=eastwest;rounded=0;shadow=0;html=0;strokeWidth=1;horizontal=1;movable=1;resizable=1;deletable=1;editable=1;locked=0;connectable=1;" parent="PVU13nk45NJB4w4DQgDw-113" vertex="1">
          <mxGeometry y="102" width="160" height="17" as="geometry" />
        </mxCell>
        <mxCell id="PVU13nk45NJB4w4DQgDw-117" value="iKeyListener" style="swimlane;fontStyle=1;align=center;verticalAlign=top;childLayout=stackLayout;horizontal=1;startSize=26;horizontalStack=0;resizeParent=1;resizeLast=0;collapsible=1;marginBottom=0;rounded=0;shadow=0;strokeWidth=1;movable=1;resizable=1;rotatable=1;deletable=1;editable=1;locked=0;connectable=1;direction=east;" parent="WIyWlLk6GJQsqaUBKTNV-1" vertex="1">
          <mxGeometry x="840" y="880" width="160" height="85" as="geometry">
            <mxRectangle x="330" y="540" width="160" height="26" as="alternateBounds" />
          </mxGeometry>
        </mxCell>
        <mxCell id="PVU13nk45NJB4w4DQgDw-118" style="text;align=left;verticalAlign=bottom;spacingLeft=4;spacingRight=4;overflow=hidden;rotatable=1;points=[[0,0.5],[1,0.5]];portConstraint=eastwest;rounded=0;shadow=0;html=0;strokeWidth=1;horizontal=1;movable=1;resizable=1;deletable=1;editable=1;locked=0;connectable=1;" parent="PVU13nk45NJB4w4DQgDw-117" vertex="1">
          <mxGeometry y="26" width="160" height="17" as="geometry" />
        </mxCell>
        <mxCell id="PVU13nk45NJB4w4DQgDw-119" value="" style="line;html=1;strokeWidth=1;align=left;verticalAlign=middle;spacingTop=-1;spacingLeft=3;spacingRight=3;rotatable=1;labelPosition=right;points=[];portConstraint=eastwest;fontSize=12;perimeterSpacing=0;movable=1;resizable=1;deletable=1;editable=1;locked=0;connectable=1;verticalLabelPosition=middle;" parent="PVU13nk45NJB4w4DQgDw-117" vertex="1">
          <mxGeometry y="43" width="160" height="8" as="geometry" />
        </mxCell>
        <mxCell id="PVU13nk45NJB4w4DQgDw-120" value="+OnKeyPressed()" style="text;align=left;verticalAlign=bottom;spacingLeft=4;spacingRight=4;overflow=hidden;rotatable=1;points=[[0,0.5],[1,0.5]];portConstraint=eastwest;rounded=0;shadow=0;html=0;strokeWidth=1;horizontal=1;movable=1;resizable=1;deletable=1;editable=1;locked=0;connectable=1;" parent="PVU13nk45NJB4w4DQgDw-117" vertex="1">
          <mxGeometry y="51" width="160" height="17" as="geometry" />
        </mxCell>
        <mxCell id="PVU13nk45NJB4w4DQgDw-124" value="+OnKeyReleased()" style="text;align=left;verticalAlign=bottom;spacingLeft=4;spacingRight=4;overflow=hidden;rotatable=1;points=[[0,0.5],[1,0.5]];portConstraint=eastwest;rounded=0;shadow=0;html=0;strokeWidth=1;horizontal=1;movable=1;resizable=1;deletable=1;editable=1;locked=0;connectable=1;" parent="PVU13nk45NJB4w4DQgDw-117" vertex="1">
          <mxGeometry y="68" width="160" height="17" as="geometry" />
        </mxCell>
        <mxCell id="PVU13nk45NJB4w4DQgDw-125" value="Color" style="swimlane;fontStyle=1;align=center;verticalAlign=top;childLayout=stackLayout;horizontal=1;startSize=26;horizontalStack=0;resizeParent=1;resizeLast=0;collapsible=1;marginBottom=0;rounded=0;shadow=0;strokeWidth=1;movable=1;resizable=1;rotatable=1;deletable=1;editable=1;locked=0;connectable=1;direction=east;" parent="WIyWlLk6GJQsqaUBKTNV-1" vertex="1">
          <mxGeometry x="-200" y="760" width="160" height="68" as="geometry">
            <mxRectangle x="330" y="540" width="160" height="26" as="alternateBounds" />
          </mxGeometry>
        </mxCell>
        <mxCell id="PVU13nk45NJB4w4DQgDw-126" style="text;align=left;verticalAlign=bottom;spacingLeft=4;spacingRight=4;overflow=hidden;rotatable=1;points=[[0,0.5],[1,0.5]];portConstraint=eastwest;rounded=0;shadow=0;html=0;strokeWidth=1;horizontal=1;movable=1;resizable=1;deletable=1;editable=1;locked=0;connectable=1;" parent="PVU13nk45NJB4w4DQgDw-125" vertex="1">
          <mxGeometry y="26" width="160" height="17" as="geometry" />
        </mxCell>
        <mxCell id="PVU13nk45NJB4w4DQgDw-127" value="" style="line;html=1;strokeWidth=1;align=left;verticalAlign=middle;spacingTop=-1;spacingLeft=3;spacingRight=3;rotatable=1;labelPosition=right;points=[];portConstraint=eastwest;fontSize=12;perimeterSpacing=0;movable=1;resizable=1;deletable=1;editable=1;locked=0;connectable=1;verticalLabelPosition=middle;" parent="PVU13nk45NJB4w4DQgDw-125" vertex="1">
          <mxGeometry y="43" width="160" height="8" as="geometry" />
        </mxCell>
        <mxCell id="PVU13nk45NJB4w4DQgDw-128" style="text;align=left;verticalAlign=bottom;spacingLeft=4;spacingRight=4;overflow=hidden;rotatable=1;points=[[0,0.5],[1,0.5]];portConstraint=eastwest;rounded=0;shadow=0;html=0;strokeWidth=1;horizontal=1;movable=1;resizable=1;deletable=1;editable=1;locked=0;connectable=1;" parent="PVU13nk45NJB4w4DQgDw-125" vertex="1">
          <mxGeometry y="51" width="160" height="17" as="geometry" />
        </mxCell>
        <mxCell id="PVU13nk45NJB4w4DQgDw-129" value="Point" style="swimlane;fontStyle=1;align=center;verticalAlign=top;childLayout=stackLayout;horizontal=1;startSize=26;horizontalStack=0;resizeParent=1;resizeLast=0;collapsible=1;marginBottom=0;rounded=0;shadow=0;strokeWidth=1;movable=1;resizable=1;rotatable=1;deletable=1;editable=1;locked=0;connectable=1;direction=east;" parent="WIyWlLk6GJQsqaUBKTNV-1" vertex="1">
          <mxGeometry x="-200" y="650" width="160" height="68" as="geometry">
            <mxRectangle x="330" y="540" width="160" height="26" as="alternateBounds" />
          </mxGeometry>
        </mxCell>
        <mxCell id="PVU13nk45NJB4w4DQgDw-130" style="text;align=left;verticalAlign=bottom;spacingLeft=4;spacingRight=4;overflow=hidden;rotatable=1;points=[[0,0.5],[1,0.5]];portConstraint=eastwest;rounded=0;shadow=0;html=0;strokeWidth=1;horizontal=1;movable=1;resizable=1;deletable=1;editable=1;locked=0;connectable=1;" parent="PVU13nk45NJB4w4DQgDw-129" vertex="1">
          <mxGeometry y="26" width="160" height="17" as="geometry" />
        </mxCell>
        <mxCell id="PVU13nk45NJB4w4DQgDw-131" value="" style="line;html=1;strokeWidth=1;align=left;verticalAlign=middle;spacingTop=-1;spacingLeft=3;spacingRight=3;rotatable=1;labelPosition=right;points=[];portConstraint=eastwest;fontSize=12;perimeterSpacing=0;movable=1;resizable=1;deletable=1;editable=1;locked=0;connectable=1;verticalLabelPosition=middle;" parent="PVU13nk45NJB4w4DQgDw-129" vertex="1">
          <mxGeometry y="43" width="160" height="8" as="geometry" />
        </mxCell>
        <mxCell id="PVU13nk45NJB4w4DQgDw-132" style="text;align=left;verticalAlign=bottom;spacingLeft=4;spacingRight=4;overflow=hidden;rotatable=1;points=[[0,0.5],[1,0.5]];portConstraint=eastwest;rounded=0;shadow=0;html=0;strokeWidth=1;horizontal=1;movable=1;resizable=1;deletable=1;editable=1;locked=0;connectable=1;" parent="PVU13nk45NJB4w4DQgDw-129" vertex="1">
          <mxGeometry y="51" width="160" height="17" as="geometry" />
        </mxCell>
        <mxCell id="PVU13nk45NJB4w4DQgDw-133" value="Debug" style="shape=folder;fontStyle=1;spacingTop=10;tabWidth=40;tabHeight=14;tabPosition=left;html=1;whiteSpace=wrap;" parent="WIyWlLk6GJQsqaUBKTNV-1" vertex="1">
          <mxGeometry x="-200" y="560" width="70" height="40" as="geometry" />
        </mxCell>
        <mxCell id="PVU13nk45NJB4w4DQgDw-135" value="Time" style="shape=folder;fontStyle=1;spacingTop=10;tabWidth=40;tabHeight=14;tabPosition=left;html=1;whiteSpace=wrap;" parent="WIyWlLk6GJQsqaUBKTNV-1" vertex="1">
          <mxGeometry x="-200" y="490" width="70" height="40" as="geometry" />
        </mxCell>
        <mxCell id="PVU13nk45NJB4w4DQgDw-136" value="Input" style="shape=folder;fontStyle=1;spacingTop=10;tabWidth=40;tabHeight=14;tabPosition=left;html=1;whiteSpace=wrap;" parent="WIyWlLk6GJQsqaUBKTNV-1" vertex="1">
          <mxGeometry x="-200" y="420" width="70" height="40" as="geometry" />
        </mxCell>
        <mxCell id="PVU13nk45NJB4w4DQgDw-138" value="AudioSource" style="swimlane;fontStyle=1;align=center;verticalAlign=top;childLayout=stackLayout;horizontal=1;startSize=26;horizontalStack=0;resizeParent=1;resizeLast=0;collapsible=1;marginBottom=0;rounded=0;shadow=0;strokeWidth=1;movable=1;resizable=1;rotatable=1;deletable=1;editable=1;locked=0;connectable=1;direction=east;" parent="WIyWlLk6GJQsqaUBKTNV-1" vertex="1">
          <mxGeometry x="30" y="212" width="160" height="136" as="geometry">
            <mxRectangle x="330" y="540" width="160" height="26" as="alternateBounds" />
          </mxGeometry>
        </mxCell>
        <mxCell id="PVU13nk45NJB4w4DQgDw-142" value="+audioClip: Resource* (was String)" style="text;align=left;verticalAlign=bottom;spacingLeft=4;spacingRight=4;overflow=hidden;rotatable=1;points=[[0,0.5],[1,0.5]];portConstraint=eastwest;rounded=0;shadow=0;html=0;strokeWidth=1;horizontal=1;movable=1;resizable=1;deletable=1;editable=1;locked=0;connectable=1;fontColor=#ff0000;" parent="PVU13nk45NJB4w4DQgDw-138" vertex="1">
          <mxGeometry y="26" width="160" height="17" as="geometry" />
        </mxCell>
        <mxCell id="PVU13nk45NJB4w4DQgDw-143" value="+playOnAwake: Boolean" style="text;align=left;verticalAlign=bottom;spacingLeft=4;spacingRight=4;overflow=hidden;rotatable=1;points=[[0,0.5],[1,0.5]];portConstraint=eastwest;rounded=0;shadow=0;html=0;strokeWidth=1;horizontal=1;movable=1;resizable=1;deletable=1;editable=1;locked=0;connectable=1;" parent="PVU13nk45NJB4w4DQgDw-138" vertex="1">
          <mxGeometry y="43" width="160" height="17" as="geometry" />
        </mxCell>
        <mxCell id="PVU13nk45NJB4w4DQgDw-144" value="+loop: Boolean" style="text;align=left;verticalAlign=bottom;spacingLeft=4;spacingRight=4;overflow=hidden;rotatable=1;points=[[0,0.5],[1,0.5]];portConstraint=eastwest;rounded=0;shadow=0;html=0;strokeWidth=1;horizontal=1;movable=1;resizable=1;deletable=1;editable=1;locked=0;connectable=1;" parent="PVU13nk45NJB4w4DQgDw-138" vertex="1">
          <mxGeometry y="60" width="160" height="17" as="geometry" />
        </mxCell>
        <mxCell id="PVU13nk45NJB4w4DQgDw-145" value="+volume" style="text;align=left;verticalAlign=bottom;spacingLeft=4;spacingRight=4;overflow=hidden;rotatable=1;points=[[0,0.5],[1,0.5]];portConstraint=eastwest;rounded=0;shadow=0;html=0;strokeWidth=1;horizontal=1;movable=1;resizable=1;deletable=1;editable=1;locked=0;connectable=1;" parent="PVU13nk45NJB4w4DQgDw-138" vertex="1">
          <mxGeometry y="77" width="160" height="17" as="geometry" />
        </mxCell>
        <mxCell id="PVU13nk45NJB4w4DQgDw-140" value="" style="line;html=1;strokeWidth=1;align=left;verticalAlign=middle;spacingTop=-1;spacingLeft=3;spacingRight=3;rotatable=1;labelPosition=right;points=[];portConstraint=eastwest;fontSize=12;perimeterSpacing=0;movable=1;resizable=1;deletable=1;editable=1;locked=0;connectable=1;verticalLabelPosition=middle;" parent="PVU13nk45NJB4w4DQgDw-138" vertex="1">
          <mxGeometry y="94" width="160" height="8" as="geometry" />
        </mxCell>
        <mxCell id="PVU13nk45NJB4w4DQgDw-141" value="+Play(looping)" style="text;align=left;verticalAlign=bottom;spacingLeft=4;spacingRight=4;overflow=hidden;rotatable=1;points=[[0,0.5],[1,0.5]];portConstraint=eastwest;rounded=0;shadow=0;html=0;strokeWidth=1;horizontal=1;movable=1;resizable=1;deletable=1;editable=1;locked=0;connectable=1;" parent="PVU13nk45NJB4w4DQgDw-138" vertex="1">
          <mxGeometry y="102" width="160" height="17" as="geometry" />
        </mxCell>
        <mxCell id="PVU13nk45NJB4w4DQgDw-150" value="+Stop()" style="text;align=left;verticalAlign=bottom;spacingLeft=4;spacingRight=4;overflow=hidden;rotatable=1;points=[[0,0.5],[1,0.5]];portConstraint=eastwest;rounded=0;shadow=0;html=0;strokeWidth=1;horizontal=1;movable=1;resizable=1;deletable=1;editable=1;locked=0;connectable=1;" parent="PVU13nk45NJB4w4DQgDw-138" vertex="1">
          <mxGeometry y="119" width="160" height="17" as="geometry" />
        </mxCell>
        <mxCell id="PVU13nk45NJB4w4DQgDw-152" value="Collider" style="swimlane;fontStyle=1;align=center;verticalAlign=top;childLayout=stackLayout;horizontal=1;startSize=26;horizontalStack=0;resizeParent=1;resizeLast=0;collapsible=1;marginBottom=0;rounded=0;shadow=0;strokeWidth=1;movable=1;resizable=1;rotatable=1;deletable=1;editable=1;locked=0;connectable=1;direction=east;" parent="WIyWlLk6GJQsqaUBKTNV-1" vertex="1">
          <mxGeometry x="310" y="212" width="160" height="68" as="geometry">
            <mxRectangle x="330" y="540" width="160" height="26" as="alternateBounds" />
          </mxGeometry>
        </mxCell>
        <mxCell id="PVU13nk45NJB4w4DQgDw-153" style="text;align=left;verticalAlign=bottom;spacingLeft=4;spacingRight=4;overflow=hidden;rotatable=1;points=[[0,0.5],[1,0.5]];portConstraint=eastwest;rounded=0;shadow=0;html=0;strokeWidth=1;horizontal=1;movable=1;resizable=1;deletable=1;editable=1;locked=0;connectable=1;" parent="PVU13nk45NJB4w4DQgDw-152" vertex="1">
          <mxGeometry y="26" width="160" height="17" as="geometry" />
        </mxCell>
        <mxCell id="PVU13nk45NJB4w4DQgDw-154" value="" style="line;html=1;strokeWidth=1;align=left;verticalAlign=middle;spacingTop=-1;spacingLeft=3;spacingRight=3;rotatable=1;labelPosition=right;points=[];portConstraint=eastwest;fontSize=12;perimeterSpacing=0;movable=1;resizable=1;deletable=1;editable=1;locked=0;connectable=1;verticalLabelPosition=middle;" parent="PVU13nk45NJB4w4DQgDw-152" vertex="1">
          <mxGeometry y="43" width="160" height="8" as="geometry" />
        </mxCell>
        <mxCell id="PVU13nk45NJB4w4DQgDw-155" style="text;align=left;verticalAlign=bottom;spacingLeft=4;spacingRight=4;overflow=hidden;rotatable=1;points=[[0,0.5],[1,0.5]];portConstraint=eastwest;rounded=0;shadow=0;html=0;strokeWidth=1;horizontal=1;movable=1;resizable=1;deletable=1;editable=1;locked=0;connectable=1;" parent="PVU13nk45NJB4w4DQgDw-152" vertex="1">
          <mxGeometry y="51" width="160" height="17" as="geometry" />
        </mxCell>
        <mxCell id="PVU13nk45NJB4w4DQgDw-156" value="CircleCollider" style="swimlane;fontStyle=1;align=center;verticalAlign=top;childLayout=stackLayout;horizontal=1;startSize=26;horizontalStack=0;resizeParent=1;resizeLast=0;collapsible=1;marginBottom=0;rounded=0;shadow=0;strokeWidth=1;movable=1;resizable=1;rotatable=1;deletable=1;editable=1;locked=0;connectable=1;direction=east;" parent="WIyWlLk6GJQsqaUBKTNV-1" vertex="1">
          <mxGeometry x="220" y="318" width="160" height="68" as="geometry">
            <mxRectangle x="330" y="540" width="160" height="26" as="alternateBounds" />
          </mxGeometry>
        </mxCell>
        <mxCell id="PVU13nk45NJB4w4DQgDw-157" value="+radius" style="text;align=left;verticalAlign=bottom;spacingLeft=4;spacingRight=4;overflow=hidden;rotatable=1;points=[[0,0.5],[1,0.5]];portConstraint=eastwest;rounded=0;shadow=0;html=0;strokeWidth=1;horizontal=1;movable=1;resizable=1;deletable=1;editable=1;locked=0;connectable=1;" parent="PVU13nk45NJB4w4DQgDw-156" vertex="1">
          <mxGeometry y="26" width="160" height="17" as="geometry" />
        </mxCell>
        <mxCell id="PVU13nk45NJB4w4DQgDw-158" value="" style="line;html=1;strokeWidth=1;align=left;verticalAlign=middle;spacingTop=-1;spacingLeft=3;spacingRight=3;rotatable=1;labelPosition=right;points=[];portConstraint=eastwest;fontSize=12;perimeterSpacing=0;movable=1;resizable=1;deletable=1;editable=1;locked=0;connectable=1;verticalLabelPosition=middle;" parent="PVU13nk45NJB4w4DQgDw-156" vertex="1">
          <mxGeometry y="43" width="160" height="8" as="geometry" />
        </mxCell>
        <mxCell id="PVU13nk45NJB4w4DQgDw-159" style="text;align=left;verticalAlign=bottom;spacingLeft=4;spacingRight=4;overflow=hidden;rotatable=1;points=[[0,0.5],[1,0.5]];portConstraint=eastwest;rounded=0;shadow=0;html=0;strokeWidth=1;horizontal=1;movable=1;resizable=1;deletable=1;editable=1;locked=0;connectable=1;" parent="PVU13nk45NJB4w4DQgDw-156" vertex="1">
          <mxGeometry y="51" width="160" height="17" as="geometry" />
        </mxCell>
        <mxCell id="PVU13nk45NJB4w4DQgDw-160" value="BoxCollider" style="swimlane;fontStyle=1;align=center;verticalAlign=top;childLayout=stackLayout;horizontal=1;startSize=26;horizontalStack=0;resizeParent=1;resizeLast=0;collapsible=1;marginBottom=0;rounded=0;shadow=0;strokeWidth=1;movable=1;resizable=1;rotatable=1;deletable=1;editable=1;locked=0;connectable=1;direction=east;" parent="WIyWlLk6GJQsqaUBKTNV-1" vertex="1">
          <mxGeometry x="414" y="316" width="160" height="85" as="geometry">
            <mxRectangle x="330" y="540" width="160" height="26" as="alternateBounds" />
          </mxGeometry>
        </mxCell>
        <mxCell id="PVU13nk45NJB4w4DQgDw-164" value="+width" style="text;align=left;verticalAlign=bottom;spacingLeft=4;spacingRight=4;overflow=hidden;rotatable=1;points=[[0,0.5],[1,0.5]];portConstraint=eastwest;rounded=0;shadow=0;html=0;strokeWidth=1;horizontal=1;movable=1;resizable=1;deletable=1;editable=1;locked=0;connectable=1;" parent="PVU13nk45NJB4w4DQgDw-160" vertex="1">
          <mxGeometry y="26" width="160" height="17" as="geometry" />
        </mxCell>
        <mxCell id="PVU13nk45NJB4w4DQgDw-161" value="+height" style="text;align=left;verticalAlign=bottom;spacingLeft=4;spacingRight=4;overflow=hidden;rotatable=1;points=[[0,0.5],[1,0.5]];portConstraint=eastwest;rounded=0;shadow=0;html=0;strokeWidth=1;horizontal=1;movable=1;resizable=1;deletable=1;editable=1;locked=0;connectable=1;" parent="PVU13nk45NJB4w4DQgDw-160" vertex="1">
          <mxGeometry y="43" width="160" height="17" as="geometry" />
        </mxCell>
        <mxCell id="PVU13nk45NJB4w4DQgDw-162" value="" style="line;html=1;strokeWidth=1;align=left;verticalAlign=middle;spacingTop=-1;spacingLeft=3;spacingRight=3;rotatable=1;labelPosition=right;points=[];portConstraint=eastwest;fontSize=12;perimeterSpacing=0;movable=1;resizable=1;deletable=1;editable=1;locked=0;connectable=1;verticalLabelPosition=middle;" parent="PVU13nk45NJB4w4DQgDw-160" vertex="1">
          <mxGeometry y="60" width="160" height="8" as="geometry" />
        </mxCell>
        <mxCell id="PVU13nk45NJB4w4DQgDw-163" style="text;align=left;verticalAlign=bottom;spacingLeft=4;spacingRight=4;overflow=hidden;rotatable=1;points=[[0,0.5],[1,0.5]];portConstraint=eastwest;rounded=0;shadow=0;html=0;strokeWidth=1;horizontal=1;movable=1;resizable=1;deletable=1;editable=1;locked=0;connectable=1;" parent="PVU13nk45NJB4w4DQgDw-160" vertex="1">
          <mxGeometry y="68" width="160" height="17" as="geometry" />
        </mxCell>
        <mxCell id="PVU13nk45NJB4w4DQgDw-165" value="Component" style="swimlane;fontStyle=1;align=center;verticalAlign=top;childLayout=stackLayout;horizontal=1;startSize=26;horizontalStack=0;resizeParent=1;resizeLast=0;collapsible=1;marginBottom=0;rounded=0;shadow=0;strokeWidth=1;movable=1;resizable=1;rotatable=1;deletable=1;editable=1;locked=0;connectable=1;direction=east;" parent="WIyWlLk6GJQsqaUBKTNV-1" vertex="1">
          <mxGeometry x="410" y="82" width="160" height="68" as="geometry">
            <mxRectangle x="330" y="540" width="160" height="26" as="alternateBounds" />
          </mxGeometry>
        </mxCell>
        <mxCell id="PVU13nk45NJB4w4DQgDw-166" value="+active: Boolean" style="text;align=left;verticalAlign=bottom;spacingLeft=4;spacingRight=4;overflow=hidden;rotatable=1;points=[[0,0.5],[1,0.5]];portConstraint=eastwest;rounded=0;shadow=0;html=0;strokeWidth=1;horizontal=1;movable=1;resizable=1;deletable=1;editable=1;locked=0;connectable=1;" parent="PVU13nk45NJB4w4DQgDw-165" vertex="1">
          <mxGeometry y="26" width="160" height="17" as="geometry" />
        </mxCell>
        <mxCell id="PVU13nk45NJB4w4DQgDw-167" value="" style="line;html=1;strokeWidth=1;align=left;verticalAlign=middle;spacingTop=-1;spacingLeft=3;spacingRight=3;rotatable=1;labelPosition=right;points=[];portConstraint=eastwest;fontSize=12;perimeterSpacing=0;movable=1;resizable=1;deletable=1;editable=1;locked=0;connectable=1;verticalLabelPosition=middle;" parent="PVU13nk45NJB4w4DQgDw-165" vertex="1">
          <mxGeometry y="43" width="160" height="8" as="geometry" />
        </mxCell>
        <mxCell id="PVU13nk45NJB4w4DQgDw-168" style="text;align=left;verticalAlign=bottom;spacingLeft=4;spacingRight=4;overflow=hidden;rotatable=1;points=[[0,0.5],[1,0.5]];portConstraint=eastwest;rounded=0;shadow=0;html=0;strokeWidth=1;horizontal=1;movable=1;resizable=1;deletable=1;editable=1;locked=0;connectable=1;" parent="PVU13nk45NJB4w4DQgDw-165" vertex="1">
          <mxGeometry y="51" width="160" height="17" as="geometry" />
        </mxCell>
        <mxCell id="PVU13nk45NJB4w4DQgDw-169" value="Rigidbody" style="swimlane;fontStyle=1;align=center;verticalAlign=top;childLayout=stackLayout;horizontal=1;startSize=26;horizontalStack=0;resizeParent=1;resizeLast=0;collapsible=1;marginBottom=0;rounded=0;shadow=0;strokeWidth=1;movable=1;resizable=1;rotatable=1;deletable=1;editable=1;locked=0;connectable=1;direction=east;" parent="WIyWlLk6GJQsqaUBKTNV-1" vertex="1">
          <mxGeometry x="550" y="195" width="160" height="102" as="geometry">
            <mxRectangle x="330" y="540" width="160" height="26" as="alternateBounds" />
          </mxGeometry>
        </mxCell>
        <mxCell id="PVU13nk45NJB4w4DQgDw-174" value="+mass" style="text;align=left;verticalAlign=bottom;spacingLeft=4;spacingRight=4;overflow=hidden;rotatable=1;points=[[0,0.5],[1,0.5]];portConstraint=eastwest;rounded=0;shadow=0;html=0;strokeWidth=1;horizontal=1;movable=1;resizable=1;deletable=1;editable=1;locked=0;connectable=1;" parent="PVU13nk45NJB4w4DQgDw-169" vertex="1">
          <mxGeometry y="26" width="160" height="17" as="geometry" />
        </mxCell>
        <mxCell id="PVU13nk45NJB4w4DQgDw-173" value="+gravityScale" style="text;align=left;verticalAlign=bottom;spacingLeft=4;spacingRight=4;overflow=hidden;rotatable=1;points=[[0,0.5],[1,0.5]];portConstraint=eastwest;rounded=0;shadow=0;html=0;strokeWidth=1;horizontal=1;movable=1;resizable=1;deletable=1;editable=1;locked=0;connectable=1;" parent="PVU13nk45NJB4w4DQgDw-169" vertex="1">
          <mxGeometry y="43" width="160" height="17" as="geometry" />
        </mxCell>
        <mxCell id="PVU13nk45NJB4w4DQgDw-170" value="+bodyType" style="text;align=left;verticalAlign=bottom;spacingLeft=4;spacingRight=4;overflow=hidden;rotatable=1;points=[[0,0.5],[1,0.5]];portConstraint=eastwest;rounded=0;shadow=0;html=0;strokeWidth=1;horizontal=1;movable=1;resizable=1;deletable=1;editable=1;locked=0;connectable=1;" parent="PVU13nk45NJB4w4DQgDw-169" vertex="1">
          <mxGeometry y="60" width="160" height="17" as="geometry" />
        </mxCell>
        <mxCell id="PVU13nk45NJB4w4DQgDw-171" value="" style="line;html=1;strokeWidth=1;align=left;verticalAlign=middle;spacingTop=-1;spacingLeft=3;spacingRight=3;rotatable=1;labelPosition=right;points=[];portConstraint=eastwest;fontSize=12;perimeterSpacing=0;movable=1;resizable=1;deletable=1;editable=1;locked=0;connectable=1;verticalLabelPosition=middle;" parent="PVU13nk45NJB4w4DQgDw-169" vertex="1">
          <mxGeometry y="77" width="160" height="8" as="geometry" />
        </mxCell>
        <mxCell id="PVU13nk45NJB4w4DQgDw-172" style="text;align=left;verticalAlign=bottom;spacingLeft=4;spacingRight=4;overflow=hidden;rotatable=1;points=[[0,0.5],[1,0.5]];portConstraint=eastwest;rounded=0;shadow=0;html=0;strokeWidth=1;horizontal=1;movable=1;resizable=1;deletable=1;editable=1;locked=0;connectable=1;" parent="PVU13nk45NJB4w4DQgDw-169" vertex="1">
          <mxGeometry y="85" width="160" height="17" as="geometry" />
        </mxCell>
        <mxCell id="PVU13nk45NJB4w4DQgDw-175" value="BehaviourScript" style="swimlane;fontStyle=1;align=center;verticalAlign=top;childLayout=stackLayout;horizontal=1;startSize=26;horizontalStack=0;resizeParent=1;resizeLast=0;collapsible=1;marginBottom=0;rounded=0;shadow=0;strokeWidth=1;movable=1;resizable=1;rotatable=1;deletable=1;editable=1;locked=0;connectable=1;direction=east;" parent="WIyWlLk6GJQsqaUBKTNV-1" vertex="1">
          <mxGeometry x="690" y="316" width="160" height="85" as="geometry">
            <mxRectangle x="330" y="540" width="160" height="26" as="alternateBounds" />
          </mxGeometry>
        </mxCell>
        <mxCell id="PVU13nk45NJB4w4DQgDw-176" style="text;align=left;verticalAlign=bottom;spacingLeft=4;spacingRight=4;overflow=hidden;rotatable=1;points=[[0,0.5],[1,0.5]];portConstraint=eastwest;rounded=0;shadow=0;html=0;strokeWidth=1;horizontal=1;movable=1;resizable=1;deletable=1;editable=1;locked=0;connectable=1;" parent="PVU13nk45NJB4w4DQgDw-175" vertex="1">
          <mxGeometry y="26" width="160" height="17" as="geometry" />
        </mxCell>
        <mxCell id="PVU13nk45NJB4w4DQgDw-177" value="" style="line;html=1;strokeWidth=1;align=left;verticalAlign=middle;spacingTop=-1;spacingLeft=3;spacingRight=3;rotatable=1;labelPosition=right;points=[];portConstraint=eastwest;fontSize=12;perimeterSpacing=0;movable=1;resizable=1;deletable=1;editable=1;locked=0;connectable=1;verticalLabelPosition=middle;" parent="PVU13nk45NJB4w4DQgDw-175" vertex="1">
          <mxGeometry y="43" width="160" height="8" as="geometry" />
        </mxCell>
        <mxCell id="PVU13nk45NJB4w4DQgDw-178" value="+OnStart()" style="text;align=left;verticalAlign=bottom;spacingLeft=4;spacingRight=4;overflow=hidden;rotatable=1;points=[[0,0.5],[1,0.5]];portConstraint=eastwest;rounded=0;shadow=0;html=0;strokeWidth=1;horizontal=1;movable=1;resizable=1;deletable=1;editable=1;locked=0;connectable=1;" parent="PVU13nk45NJB4w4DQgDw-175" vertex="1">
          <mxGeometry y="51" width="160" height="17" as="geometry" />
        </mxCell>
        <mxCell id="PVU13nk45NJB4w4DQgDw-179" value="+OnUpdate()" style="text;align=left;verticalAlign=bottom;spacingLeft=4;spacingRight=4;overflow=hidden;rotatable=1;points=[[0,0.5],[1,0.5]];portConstraint=eastwest;rounded=0;shadow=0;html=0;strokeWidth=1;horizontal=1;movable=1;resizable=1;deletable=1;editable=1;locked=0;connectable=1;" parent="PVU13nk45NJB4w4DQgDw-175" vertex="1">
          <mxGeometry y="68" width="160" height="17" as="geometry" />
        </mxCell>
        <mxCell id="PVU13nk45NJB4w4DQgDw-180" value="Sprite" style="swimlane;fontStyle=1;align=center;verticalAlign=top;childLayout=stackLayout;horizontal=1;startSize=26;horizontalStack=0;resizeParent=1;resizeLast=0;collapsible=1;marginBottom=0;rounded=0;shadow=0;strokeWidth=1;movable=1;resizable=1;rotatable=1;deletable=1;editable=1;locked=0;connectable=1;direction=east;" parent="WIyWlLk6GJQsqaUBKTNV-1" vertex="1">
          <mxGeometry x="880" y="165" width="160" height="153" as="geometry">
            <mxRectangle x="330" y="540" width="160" height="26" as="alternateBounds" />
          </mxGeometry>
        </mxCell>
        <mxCell id="PVU13nk45NJB4w4DQgDw-199" value="+sprite:Resource* (WasString)" style="text;align=left;verticalAlign=bottom;spacingLeft=4;spacingRight=4;overflow=hidden;rotatable=1;points=[[0,0.5],[1,0.5]];portConstraint=eastwest;rounded=0;shadow=0;html=0;strokeWidth=1;horizontal=1;movable=1;resizable=1;deletable=1;editable=1;locked=0;connectable=1;fontColor=#ff0000;" parent="PVU13nk45NJB4w4DQgDw-180" vertex="1">
          <mxGeometry y="26" width="160" height="17" as="geometry" />
        </mxCell>
        <mxCell id="PVU13nk45NJB4w4DQgDw-198" value="+color" style="text;align=left;verticalAlign=bottom;spacingLeft=4;spacingRight=4;overflow=hidden;rotatable=1;points=[[0,0.5],[1,0.5]];portConstraint=eastwest;rounded=0;shadow=0;html=0;strokeWidth=1;horizontal=1;movable=1;resizable=1;deletable=1;editable=1;locked=0;connectable=1;" parent="PVU13nk45NJB4w4DQgDw-180" vertex="1">
          <mxGeometry y="43" width="160" height="17" as="geometry" />
        </mxCell>
        <mxCell id="PVU13nk45NJB4w4DQgDw-197" value="+flipX" style="text;align=left;verticalAlign=bottom;spacingLeft=4;spacingRight=4;overflow=hidden;rotatable=1;points=[[0,0.5],[1,0.5]];portConstraint=eastwest;rounded=0;shadow=0;html=0;strokeWidth=1;horizontal=1;movable=1;resizable=1;deletable=1;editable=1;locked=0;connectable=1;" parent="PVU13nk45NJB4w4DQgDw-180" vertex="1">
          <mxGeometry y="60" width="160" height="17" as="geometry" />
        </mxCell>
        <mxCell id="PVU13nk45NJB4w4DQgDw-196" value="+flipY" style="text;align=left;verticalAlign=bottom;spacingLeft=4;spacingRight=4;overflow=hidden;rotatable=1;points=[[0,0.5],[1,0.5]];portConstraint=eastwest;rounded=0;shadow=0;html=0;strokeWidth=1;horizontal=1;movable=1;resizable=1;deletable=1;editable=1;locked=0;connectable=1;" parent="PVU13nk45NJB4w4DQgDw-180" vertex="1">
          <mxGeometry y="77" width="160" height="17" as="geometry" />
        </mxCell>
        <mxCell id="PVU13nk45NJB4w4DQgDw-195" value="+sortingLayer" style="text;align=left;verticalAlign=bottom;spacingLeft=4;spacingRight=4;overflow=hidden;rotatable=1;points=[[0,0.5],[1,0.5]];portConstraint=eastwest;rounded=0;shadow=0;html=0;strokeWidth=1;horizontal=1;movable=1;resizable=1;deletable=1;editable=1;locked=0;connectable=1;" parent="PVU13nk45NJB4w4DQgDw-180" vertex="1">
          <mxGeometry y="94" width="160" height="17" as="geometry" />
        </mxCell>
        <mxCell id="PVU13nk45NJB4w4DQgDw-181" value="+orderInLayer" style="text;align=left;verticalAlign=bottom;spacingLeft=4;spacingRight=4;overflow=hidden;rotatable=1;points=[[0,0.5],[1,0.5]];portConstraint=eastwest;rounded=0;shadow=0;html=0;strokeWidth=1;horizontal=1;movable=1;resizable=1;deletable=1;editable=1;locked=0;connectable=1;" parent="PVU13nk45NJB4w4DQgDw-180" vertex="1">
          <mxGeometry y="111" width="160" height="17" as="geometry" />
        </mxCell>
        <mxCell id="PVU13nk45NJB4w4DQgDw-182" value="" style="line;html=1;strokeWidth=1;align=left;verticalAlign=middle;spacingTop=-1;spacingLeft=3;spacingRight=3;rotatable=1;labelPosition=right;points=[];portConstraint=eastwest;fontSize=12;perimeterSpacing=0;movable=1;resizable=1;deletable=1;editable=1;locked=0;connectable=1;verticalLabelPosition=middle;" parent="PVU13nk45NJB4w4DQgDw-180" vertex="1">
          <mxGeometry y="128" width="160" height="8" as="geometry" />
        </mxCell>
        <mxCell id="PVU13nk45NJB4w4DQgDw-183" value="+Render()" style="text;align=left;verticalAlign=bottom;spacingLeft=4;spacingRight=4;overflow=hidden;rotatable=1;points=[[0,0.5],[1,0.5]];portConstraint=eastwest;rounded=0;shadow=0;html=0;strokeWidth=1;horizontal=1;movable=1;resizable=1;deletable=1;editable=1;locked=0;connectable=1;" parent="PVU13nk45NJB4w4DQgDw-180" vertex="1">
          <mxGeometry y="136" width="160" height="17" as="geometry" />
        </mxCell>
        <mxCell id="PVU13nk45NJB4w4DQgDw-185" value="Animator" style="swimlane;fontStyle=1;align=center;verticalAlign=top;childLayout=stackLayout;horizontal=1;startSize=26;horizontalStack=0;resizeParent=1;resizeLast=0;collapsible=1;marginBottom=0;rounded=0;shadow=0;strokeWidth=1;movable=1;resizable=1;rotatable=1;deletable=1;editable=1;locked=0;connectable=1;direction=east;" parent="WIyWlLk6GJQsqaUBKTNV-1" vertex="1">
          <mxGeometry x="1050" y="318" width="160" height="85" as="geometry">
            <mxRectangle x="330" y="540" width="160" height="26" as="alternateBounds" />
          </mxGeometry>
        </mxCell>
        <mxCell id="PVU13nk45NJB4w4DQgDw-186" value="+fps" style="text;align=left;verticalAlign=bottom;spacingLeft=4;spacingRight=4;overflow=hidden;rotatable=1;points=[[0,0.5],[1,0.5]];portConstraint=eastwest;rounded=0;shadow=0;html=0;strokeWidth=1;horizontal=1;movable=1;resizable=1;deletable=1;editable=1;locked=0;connectable=1;" parent="PVU13nk45NJB4w4DQgDw-185" vertex="1">
          <mxGeometry y="26" width="160" height="17" as="geometry" />
        </mxCell>
        <mxCell id="PVU13nk45NJB4w4DQgDw-187" value="" style="line;html=1;strokeWidth=1;align=left;verticalAlign=middle;spacingTop=-1;spacingLeft=3;spacingRight=3;rotatable=1;labelPosition=right;points=[];portConstraint=eastwest;fontSize=12;perimeterSpacing=0;movable=1;resizable=1;deletable=1;editable=1;locked=0;connectable=1;verticalLabelPosition=middle;" parent="PVU13nk45NJB4w4DQgDw-185" vertex="1">
          <mxGeometry y="43" width="160" height="8" as="geometry" />
        </mxCell>
        <mxCell id="PVU13nk45NJB4w4DQgDw-188" value="+Play(looping)" style="text;align=left;verticalAlign=bottom;spacingLeft=4;spacingRight=4;overflow=hidden;rotatable=1;points=[[0,0.5],[1,0.5]];portConstraint=eastwest;rounded=0;shadow=0;html=0;strokeWidth=1;horizontal=1;movable=1;resizable=1;deletable=1;editable=1;locked=0;connectable=1;" parent="PVU13nk45NJB4w4DQgDw-185" vertex="1">
          <mxGeometry y="51" width="160" height="17" as="geometry" />
        </mxCell>
        <mxCell id="PVU13nk45NJB4w4DQgDw-189" value="+Stop()" style="text;align=left;verticalAlign=bottom;spacingLeft=4;spacingRight=4;overflow=hidden;rotatable=1;points=[[0,0.5],[1,0.5]];portConstraint=eastwest;rounded=0;shadow=0;html=0;strokeWidth=1;horizontal=1;movable=1;resizable=1;deletable=1;editable=1;locked=0;connectable=1;" parent="PVU13nk45NJB4w4DQgDw-185" vertex="1">
          <mxGeometry y="68" width="160" height="17" as="geometry" />
        </mxCell>
        <mxCell id="GgpaCZaR6PRI7i0rwrCe-4" value="" style="endArrow=none;html=1;rounded=0;movable=1;resizable=1;rotatable=1;deletable=1;editable=1;locked=0;connectable=1;endFill=0;endSize=8;startArrow=diamondThin;startFill=1;" edge="1" parent="WIyWlLk6GJQsqaUBKTNV-1" source="zkfFHV4jXpPFQw0GAbJ--6" target="PVU13nk45NJB4w4DQgDw-138">
          <mxGeometry width="50" height="50" relative="1" as="geometry">
            <mxPoint x="320" y="510" as="sourcePoint" />
            <mxPoint x="160" y="400" as="targetPoint" />
            <Array as="points">
              <mxPoint x="320" y="520" />
              <mxPoint x="110" y="520" />
            </Array>
          </mxGeometry>
        </mxCell>
        <mxCell id="GgpaCZaR6PRI7i0rwrCe-9" value="*" style="edgeLabel;html=1;align=center;verticalAlign=middle;resizable=0;points=[];" vertex="1" connectable="0" parent="GgpaCZaR6PRI7i0rwrCe-4">
          <mxGeometry x="0.8037" y="-2" relative="1" as="geometry">
            <mxPoint x="-16" y="-4" as="offset" />
          </mxGeometry>
        </mxCell>
        <mxCell id="GgpaCZaR6PRI7i0rwrCe-10" value="" style="endArrow=none;html=1;rounded=0;movable=1;resizable=1;rotatable=1;deletable=1;editable=1;locked=0;connectable=1;endFill=0;endSize=8;startArrow=diamondThin;startFill=1;" edge="1" parent="WIyWlLk6GJQsqaUBKTNV-1" source="zkfFHV4jXpPFQw0GAbJ--6" target="PVU13nk45NJB4w4DQgDw-156">
          <mxGeometry width="50" height="50" relative="1" as="geometry">
            <mxPoint x="344" y="550" as="sourcePoint" />
            <mxPoint x="179" y="358" as="targetPoint" />
            <Array as="points">
              <mxPoint x="330" y="490" />
              <mxPoint x="300" y="490" />
            </Array>
          </mxGeometry>
        </mxCell>
        <mxCell id="GgpaCZaR6PRI7i0rwrCe-11" value="*" style="edgeLabel;html=1;align=center;verticalAlign=middle;resizable=0;points=[];" vertex="1" connectable="0" parent="GgpaCZaR6PRI7i0rwrCe-10">
          <mxGeometry x="0.8037" y="-2" relative="1" as="geometry">
            <mxPoint x="-16" y="-4" as="offset" />
          </mxGeometry>
        </mxCell>
        <mxCell id="GgpaCZaR6PRI7i0rwrCe-12" value="" style="endArrow=none;html=1;rounded=0;movable=1;resizable=1;rotatable=1;deletable=1;editable=1;locked=0;connectable=1;endFill=0;endSize=8;startArrow=diamondThin;startFill=1;" edge="1" parent="WIyWlLk6GJQsqaUBKTNV-1" source="zkfFHV4jXpPFQw0GAbJ--6" target="PVU13nk45NJB4w4DQgDw-160">
          <mxGeometry width="50" height="50" relative="1" as="geometry">
            <mxPoint x="354" y="560" as="sourcePoint" />
            <mxPoint x="189" y="368" as="targetPoint" />
            <Array as="points">
              <mxPoint x="470" y="440" />
              <mxPoint x="494" y="440" />
            </Array>
          </mxGeometry>
        </mxCell>
        <mxCell id="GgpaCZaR6PRI7i0rwrCe-13" value="*" style="edgeLabel;html=1;align=center;verticalAlign=middle;resizable=0;points=[];" vertex="1" connectable="0" parent="GgpaCZaR6PRI7i0rwrCe-12">
          <mxGeometry x="0.8037" y="-2" relative="1" as="geometry">
            <mxPoint x="-16" y="-4" as="offset" />
          </mxGeometry>
        </mxCell>
        <mxCell id="GgpaCZaR6PRI7i0rwrCe-14" value="" style="endArrow=none;html=1;rounded=0;movable=1;resizable=1;rotatable=1;deletable=1;editable=1;locked=0;connectable=1;endFill=0;endSize=8;startArrow=diamondThin;startFill=1;" edge="1" parent="WIyWlLk6GJQsqaUBKTNV-1" source="zkfFHV4jXpPFQw0GAbJ--6" target="PVU13nk45NJB4w4DQgDw-169">
          <mxGeometry width="50" height="50" relative="1" as="geometry">
            <mxPoint x="364" y="570" as="sourcePoint" />
            <mxPoint x="199" y="378" as="targetPoint" />
            <Array as="points">
              <mxPoint x="500" y="460" />
              <mxPoint x="630" y="460" />
            </Array>
          </mxGeometry>
        </mxCell>
        <mxCell id="GgpaCZaR6PRI7i0rwrCe-15" value="*" style="edgeLabel;html=1;align=center;verticalAlign=middle;resizable=0;points=[];" vertex="1" connectable="0" parent="GgpaCZaR6PRI7i0rwrCe-14">
          <mxGeometry x="0.8037" y="-2" relative="1" as="geometry">
            <mxPoint x="-16" y="-26" as="offset" />
          </mxGeometry>
        </mxCell>
        <mxCell id="GgpaCZaR6PRI7i0rwrCe-16" value="" style="endArrow=none;html=1;rounded=0;movable=1;resizable=1;rotatable=1;deletable=1;editable=1;locked=0;connectable=1;endFill=0;endSize=8;startArrow=diamondThin;startFill=1;" edge="1" parent="WIyWlLk6GJQsqaUBKTNV-1" source="zkfFHV4jXpPFQw0GAbJ--6" target="PVU13nk45NJB4w4DQgDw-175">
          <mxGeometry width="50" height="50" relative="1" as="geometry">
            <mxPoint x="374" y="580" as="sourcePoint" />
            <mxPoint x="209" y="388" as="targetPoint" />
            <Array as="points">
              <mxPoint x="520" y="480" />
              <mxPoint x="770" y="480" />
            </Array>
          </mxGeometry>
        </mxCell>
        <mxCell id="GgpaCZaR6PRI7i0rwrCe-17" value="*" style="edgeLabel;html=1;align=center;verticalAlign=middle;resizable=0;points=[];" vertex="1" connectable="0" parent="GgpaCZaR6PRI7i0rwrCe-16">
          <mxGeometry x="0.8037" y="-2" relative="1" as="geometry">
            <mxPoint x="-12" y="-21" as="offset" />
          </mxGeometry>
        </mxCell>
        <mxCell id="GgpaCZaR6PRI7i0rwrCe-18" value="" style="endArrow=none;html=1;rounded=0;movable=1;resizable=1;rotatable=1;deletable=1;editable=1;locked=0;connectable=1;endFill=0;endSize=8;startArrow=diamondThin;startFill=1;" edge="1" parent="WIyWlLk6GJQsqaUBKTNV-1" source="zkfFHV4jXpPFQw0GAbJ--6" target="PVU13nk45NJB4w4DQgDw-180">
          <mxGeometry width="50" height="50" relative="1" as="geometry">
            <mxPoint x="384" y="590" as="sourcePoint" />
            <mxPoint x="219" y="398" as="targetPoint" />
            <Array as="points">
              <mxPoint x="540" y="500" />
              <mxPoint x="960" y="500" />
            </Array>
          </mxGeometry>
        </mxCell>
        <mxCell id="GgpaCZaR6PRI7i0rwrCe-19" value="0..1" style="edgeLabel;html=1;align=center;verticalAlign=middle;resizable=0;points=[];" vertex="1" connectable="0" parent="GgpaCZaR6PRI7i0rwrCe-18">
          <mxGeometry x="0.8037" y="-2" relative="1" as="geometry">
            <mxPoint x="-16" y="-45" as="offset" />
          </mxGeometry>
        </mxCell>
        <mxCell id="GgpaCZaR6PRI7i0rwrCe-20" value="" style="endArrow=none;html=1;rounded=0;movable=1;resizable=1;rotatable=1;deletable=1;editable=1;locked=0;connectable=1;endFill=0;endSize=8;startArrow=diamondThin;startFill=1;" edge="1" parent="WIyWlLk6GJQsqaUBKTNV-1" source="zkfFHV4jXpPFQw0GAbJ--6" target="PVU13nk45NJB4w4DQgDw-185">
          <mxGeometry width="50" height="50" relative="1" as="geometry">
            <mxPoint x="394" y="600" as="sourcePoint" />
            <mxPoint x="229" y="408" as="targetPoint" />
            <Array as="points">
              <mxPoint x="560" y="520" />
              <mxPoint x="1130" y="520" />
            </Array>
          </mxGeometry>
        </mxCell>
        <mxCell id="GgpaCZaR6PRI7i0rwrCe-21" value="0..*" style="edgeLabel;html=1;align=center;verticalAlign=middle;resizable=0;points=[];" vertex="1" connectable="0" parent="GgpaCZaR6PRI7i0rwrCe-20">
          <mxGeometry x="0.8037" y="-2" relative="1" as="geometry">
            <mxPoint x="-16" y="-50" as="offset" />
          </mxGeometry>
        </mxCell>
        <mxCell id="GgpaCZaR6PRI7i0rwrCe-24" value="" style="endArrow=open;html=1;rounded=0;movable=1;resizable=1;rotatable=1;deletable=1;editable=1;locked=0;connectable=1;endFill=0;endSize=8;" edge="1" parent="WIyWlLk6GJQsqaUBKTNV-1" source="PVU13nk45NJB4w4DQgDw-185" target="PVU13nk45NJB4w4DQgDw-180">
          <mxGeometry width="50" height="50" relative="1" as="geometry">
            <mxPoint x="960" y="439.38" as="sourcePoint" />
            <mxPoint x="1220" y="440" as="targetPoint" />
            <Array as="points">
              <mxPoint x="1130" y="240" />
            </Array>
          </mxGeometry>
        </mxCell>
        <mxCell id="GgpaCZaR6PRI7i0rwrCe-26" value="0..1" style="edgeLabel;html=1;align=center;verticalAlign=middle;resizable=0;points=[];" vertex="1" connectable="0" parent="GgpaCZaR6PRI7i0rwrCe-24">
          <mxGeometry x="-0.7119" y="-1" relative="1" as="geometry">
            <mxPoint x="-21" y="14" as="offset" />
          </mxGeometry>
        </mxCell>
        <mxCell id="GgpaCZaR6PRI7i0rwrCe-27" value="1..*" style="edgeLabel;html=1;align=center;verticalAlign=middle;resizable=0;points=[];" vertex="1" connectable="0" parent="GgpaCZaR6PRI7i0rwrCe-24">
          <mxGeometry x="0.6214" y="-1" relative="1" as="geometry">
            <mxPoint x="3" y="14" as="offset" />
          </mxGeometry>
        </mxCell>
        <mxCell id="GgpaCZaR6PRI7i0rwrCe-28" value="" style="endArrow=block;html=1;rounded=0;movable=1;resizable=1;rotatable=1;deletable=1;editable=1;locked=0;connectable=1;endFill=0;strokeWidth=1;endSize=14;" edge="1" parent="WIyWlLk6GJQsqaUBKTNV-1" source="PVU13nk45NJB4w4DQgDw-138" target="PVU13nk45NJB4w4DQgDw-165">
          <mxGeometry width="50" height="50" relative="1" as="geometry">
            <mxPoint x="203" y="770" as="sourcePoint" />
            <mxPoint x="330" y="682" as="targetPoint" />
            <Array as="points">
              <mxPoint x="110" y="160" />
              <mxPoint x="380" y="160" />
            </Array>
          </mxGeometry>
        </mxCell>
        <mxCell id="GgpaCZaR6PRI7i0rwrCe-29" value="" style="endArrow=block;html=1;rounded=0;movable=1;resizable=1;rotatable=1;deletable=1;editable=1;locked=0;connectable=1;endFill=0;strokeWidth=1;endSize=14;" edge="1" parent="WIyWlLk6GJQsqaUBKTNV-1" source="PVU13nk45NJB4w4DQgDw-152" target="PVU13nk45NJB4w4DQgDw-165">
          <mxGeometry width="50" height="50" relative="1" as="geometry">
            <mxPoint x="380" y="358" as="sourcePoint" />
            <mxPoint x="507" y="270" as="targetPoint" />
            <Array as="points" />
          </mxGeometry>
        </mxCell>
        <mxCell id="GgpaCZaR6PRI7i0rwrCe-31" value="" style="endArrow=block;html=1;rounded=0;movable=1;resizable=1;rotatable=1;deletable=1;editable=1;locked=0;connectable=1;endFill=0;strokeWidth=1;endSize=14;" edge="1" parent="WIyWlLk6GJQsqaUBKTNV-1" source="PVU13nk45NJB4w4DQgDw-156" target="PVU13nk45NJB4w4DQgDw-152">
          <mxGeometry width="50" height="50" relative="1" as="geometry">
            <mxPoint x="250" y="358" as="sourcePoint" />
            <mxPoint x="377" y="270" as="targetPoint" />
            <Array as="points" />
          </mxGeometry>
        </mxCell>
        <mxCell id="GgpaCZaR6PRI7i0rwrCe-32" value="" style="endArrow=block;html=1;rounded=0;movable=1;resizable=1;rotatable=1;deletable=1;editable=1;locked=0;connectable=1;endFill=0;strokeWidth=1;endSize=14;" edge="1" parent="WIyWlLk6GJQsqaUBKTNV-1" source="PVU13nk45NJB4w4DQgDw-160" target="PVU13nk45NJB4w4DQgDw-152">
          <mxGeometry width="50" height="50" relative="1" as="geometry">
            <mxPoint x="320" y="460" as="sourcePoint" />
            <mxPoint x="447" y="372" as="targetPoint" />
            <Array as="points" />
          </mxGeometry>
        </mxCell>
        <mxCell id="GgpaCZaR6PRI7i0rwrCe-33" value="" style="endArrow=block;html=1;rounded=0;movable=1;resizable=1;rotatable=1;deletable=1;editable=1;locked=0;connectable=1;endFill=0;strokeWidth=1;endSize=14;" edge="1" parent="WIyWlLk6GJQsqaUBKTNV-1" source="PVU13nk45NJB4w4DQgDw-169" target="PVU13nk45NJB4w4DQgDw-165">
          <mxGeometry width="50" height="50" relative="1" as="geometry">
            <mxPoint x="510" y="348" as="sourcePoint" />
            <mxPoint x="637" y="260" as="targetPoint" />
            <Array as="points" />
          </mxGeometry>
        </mxCell>
        <mxCell id="GgpaCZaR6PRI7i0rwrCe-34" value="" style="endArrow=block;html=1;rounded=0;movable=1;resizable=1;rotatable=1;deletable=1;editable=1;locked=0;connectable=1;endFill=0;strokeWidth=1;endSize=14;" edge="1" parent="WIyWlLk6GJQsqaUBKTNV-1" source="PVU13nk45NJB4w4DQgDw-175" target="PVU13nk45NJB4w4DQgDw-165">
          <mxGeometry width="50" height="50" relative="1" as="geometry">
            <mxPoint x="600" y="436" as="sourcePoint" />
            <mxPoint x="727" y="348" as="targetPoint" />
            <Array as="points">
              <mxPoint x="770" y="160" />
              <mxPoint x="590" y="160" />
            </Array>
          </mxGeometry>
        </mxCell>
        <mxCell id="GgpaCZaR6PRI7i0rwrCe-36" value="" style="endArrow=block;html=1;rounded=0;movable=1;resizable=1;rotatable=1;deletable=1;editable=1;locked=0;connectable=1;endFill=0;strokeWidth=1;endSize=14;" edge="1" parent="WIyWlLk6GJQsqaUBKTNV-1" source="PVU13nk45NJB4w4DQgDw-180" target="PVU13nk45NJB4w4DQgDw-165">
          <mxGeometry width="50" height="50" relative="1" as="geometry">
            <mxPoint x="920" y="140" as="sourcePoint" />
            <mxPoint x="570" y="124" as="targetPoint" />
            <Array as="points">
              <mxPoint x="960" y="116" />
            </Array>
          </mxGeometry>
        </mxCell>
        <mxCell id="GgpaCZaR6PRI7i0rwrCe-37" value="ParticelSystem" style="swimlane;fontStyle=1;align=center;verticalAlign=top;childLayout=stackLayout;horizontal=1;startSize=26;horizontalStack=0;resizeParent=1;resizeLast=0;collapsible=1;marginBottom=0;rounded=0;shadow=0;strokeWidth=1;movable=1;resizable=1;rotatable=1;deletable=1;editable=1;locked=0;connectable=1;direction=east;" vertex="1" parent="WIyWlLk6GJQsqaUBKTNV-1">
          <mxGeometry x="950" y="620" width="160" height="68" as="geometry">
            <mxRectangle x="330" y="540" width="160" height="26" as="alternateBounds" />
          </mxGeometry>
        </mxCell>
        <mxCell id="GgpaCZaR6PRI7i0rwrCe-38" style="text;align=left;verticalAlign=bottom;spacingLeft=4;spacingRight=4;overflow=hidden;rotatable=1;points=[[0,0.5],[1,0.5]];portConstraint=eastwest;rounded=0;shadow=0;html=0;strokeWidth=1;horizontal=1;movable=1;resizable=1;deletable=1;editable=1;locked=0;connectable=1;" vertex="1" parent="GgpaCZaR6PRI7i0rwrCe-37">
          <mxGeometry y="26" width="160" height="17" as="geometry" />
        </mxCell>
        <mxCell id="GgpaCZaR6PRI7i0rwrCe-39" value="" style="line;html=1;strokeWidth=1;align=left;verticalAlign=middle;spacingTop=-1;spacingLeft=3;spacingRight=3;rotatable=1;labelPosition=right;points=[];portConstraint=eastwest;fontSize=12;perimeterSpacing=0;movable=1;resizable=1;deletable=1;editable=1;locked=0;connectable=1;verticalLabelPosition=middle;" vertex="1" parent="GgpaCZaR6PRI7i0rwrCe-37">
          <mxGeometry y="43" width="160" height="8" as="geometry" />
        </mxCell>
        <mxCell id="GgpaCZaR6PRI7i0rwrCe-40" style="text;align=left;verticalAlign=bottom;spacingLeft=4;spacingRight=4;overflow=hidden;rotatable=1;points=[[0,0.5],[1,0.5]];portConstraint=eastwest;rounded=0;shadow=0;html=0;strokeWidth=1;horizontal=1;movable=1;resizable=1;deletable=1;editable=1;locked=0;connectable=1;" vertex="1" parent="GgpaCZaR6PRI7i0rwrCe-37">
          <mxGeometry y="51" width="160" height="17" as="geometry" />
        </mxCell>
        <mxCell id="GgpaCZaR6PRI7i0rwrCe-45" value="PolygonCollider" style="swimlane;fontStyle=1;align=center;verticalAlign=top;childLayout=stackLayout;horizontal=1;startSize=26;horizontalStack=0;resizeParent=1;resizeLast=0;collapsible=1;marginBottom=0;rounded=0;shadow=0;strokeWidth=1;movable=1;resizable=1;rotatable=1;deletable=1;editable=1;locked=0;connectable=1;direction=east;" vertex="1" parent="WIyWlLk6GJQsqaUBKTNV-1">
          <mxGeometry x="950" y="718" width="160" height="68" as="geometry">
            <mxRectangle x="330" y="540" width="160" height="26" as="alternateBounds" />
          </mxGeometry>
        </mxCell>
        <mxCell id="GgpaCZaR6PRI7i0rwrCe-46" style="text;align=left;verticalAlign=bottom;spacingLeft=4;spacingRight=4;overflow=hidden;rotatable=1;points=[[0,0.5],[1,0.5]];portConstraint=eastwest;rounded=0;shadow=0;html=0;strokeWidth=1;horizontal=1;movable=1;resizable=1;deletable=1;editable=1;locked=0;connectable=1;" vertex="1" parent="GgpaCZaR6PRI7i0rwrCe-45">
          <mxGeometry y="26" width="160" height="17" as="geometry" />
        </mxCell>
        <mxCell id="GgpaCZaR6PRI7i0rwrCe-47" value="" style="line;html=1;strokeWidth=1;align=left;verticalAlign=middle;spacingTop=-1;spacingLeft=3;spacingRight=3;rotatable=1;labelPosition=right;points=[];portConstraint=eastwest;fontSize=12;perimeterSpacing=0;movable=1;resizable=1;deletable=1;editable=1;locked=0;connectable=1;verticalLabelPosition=middle;" vertex="1" parent="GgpaCZaR6PRI7i0rwrCe-45">
          <mxGeometry y="43" width="160" height="8" as="geometry" />
        </mxCell>
        <mxCell id="GgpaCZaR6PRI7i0rwrCe-48" style="text;align=left;verticalAlign=bottom;spacingLeft=4;spacingRight=4;overflow=hidden;rotatable=1;points=[[0,0.5],[1,0.5]];portConstraint=eastwest;rounded=0;shadow=0;html=0;strokeWidth=1;horizontal=1;movable=1;resizable=1;deletable=1;editable=1;locked=0;connectable=1;" vertex="1" parent="GgpaCZaR6PRI7i0rwrCe-45">
          <mxGeometry y="51" width="160" height="17" as="geometry" />
        </mxCell>
      </root>
    </mxGraphModel>
  </diagram>
  <diagram id="YIiIl2IRF6RgPQzV_9jG" name="Example">
    <mxGraphModel dx="1050" dy="621" grid="1" gridSize="10" guides="1" tooltips="1" connect="1" arrows="1" fold="1" page="1" pageScale="1" pageWidth="827" pageHeight="1169" math="0" shadow="0">
      <root>
        <mxCell id="0" />
        <mxCell id="1" parent="0" />
        <mxCell id="rDWCdEblCpn9XmIhacVI-1" value="example&#xa;" style="swimlane;fontStyle=1;align=center;verticalAlign=top;childLayout=stackLayout;horizontal=1;startSize=26;horizontalStack=0;resizeParent=1;resizeLast=0;collapsible=1;marginBottom=0;rounded=0;shadow=0;strokeWidth=1;movable=1;resizable=1;rotatable=1;deletable=1;editable=1;locked=0;connectable=1;direction=east;" vertex="1" parent="1">
          <mxGeometry x="160" y="70" width="160" height="68" as="geometry">
            <mxRectangle x="330" y="540" width="160" height="26" as="alternateBounds" />
          </mxGeometry>
        </mxCell>
        <mxCell id="rDWCdEblCpn9XmIhacVI-2" style="text;align=left;verticalAlign=bottom;spacingLeft=4;spacingRight=4;overflow=hidden;rotatable=1;points=[[0,0.5],[1,0.5]];portConstraint=eastwest;rounded=0;shadow=0;html=0;strokeWidth=1;horizontal=1;movable=1;resizable=1;deletable=1;editable=1;locked=0;connectable=1;" vertex="1" parent="rDWCdEblCpn9XmIhacVI-1">
          <mxGeometry y="26" width="160" height="17" as="geometry" />
        </mxCell>
        <mxCell id="rDWCdEblCpn9XmIhacVI-3" value="" style="line;html=1;strokeWidth=1;align=left;verticalAlign=middle;spacingTop=-1;spacingLeft=3;spacingRight=3;rotatable=1;labelPosition=right;points=[];portConstraint=eastwest;fontSize=12;perimeterSpacing=0;movable=1;resizable=1;deletable=1;editable=1;locked=0;connectable=1;verticalLabelPosition=middle;" vertex="1" parent="rDWCdEblCpn9XmIhacVI-1">
          <mxGeometry y="43" width="160" height="8" as="geometry" />
        </mxCell>
        <mxCell id="rDWCdEblCpn9XmIhacVI-4" style="text;align=left;verticalAlign=bottom;spacingLeft=4;spacingRight=4;overflow=hidden;rotatable=1;points=[[0,0.5],[1,0.5]];portConstraint=eastwest;rounded=0;shadow=0;html=0;strokeWidth=1;horizontal=1;movable=1;resizable=1;deletable=1;editable=1;locked=0;connectable=1;" vertex="1" parent="rDWCdEblCpn9XmIhacVI-1">
          <mxGeometry y="51" width="160" height="17" as="geometry" />
        </mxCell>
        <mxCell id="INcigVm9b0TAH9v99pnO-1" value="" style="endArrow=block;html=1;rounded=0;movable=1;resizable=1;rotatable=1;deletable=1;editable=1;locked=0;connectable=1;endFill=0;strokeWidth=1;endSize=14;" edge="1" parent="1">
          <mxGeometry width="50" height="50" relative="1" as="geometry">
            <mxPoint x="200" y="200" as="sourcePoint" />
            <mxPoint x="160" y="160" as="targetPoint" />
            <Array as="points" />
          </mxGeometry>
        </mxCell>
        <mxCell id="BdnN9X1UdPwwrvRyySie-1" value="" style="endArrow=none;html=1;rounded=0;movable=1;resizable=1;rotatable=1;deletable=1;editable=1;locked=0;connectable=1;endFill=0;endSize=8;startArrow=diamondThin;startFill=1;" edge="1" parent="1">
          <mxGeometry width="50" height="50" relative="1" as="geometry">
            <mxPoint x="280" y="200" as="sourcePoint" />
            <mxPoint x="240" y="160" as="targetPoint" />
            <Array as="points" />
          </mxGeometry>
        </mxCell>
        <mxCell id="wr2JkJuTEkJ5C-UpQk8J-1" value="" style="endArrow=open;html=1;rounded=0;movable=1;resizable=1;rotatable=1;deletable=1;editable=1;locked=0;connectable=1;endFill=0;endSize=8;" edge="1" parent="1">
          <mxGeometry width="50" height="50" relative="1" as="geometry">
            <mxPoint x="360" y="200" as="sourcePoint" />
            <mxPoint x="320" y="160" as="targetPoint" />
            <Array as="points" />
          </mxGeometry>
        </mxCell>
        <mxCell id="oRUFz-RLu-avQMRJHf4n-1" value="" style="endArrow=none;html=1;rounded=0;" edge="1" parent="1">
          <mxGeometry width="50" height="50" relative="1" as="geometry">
            <mxPoint x="440" y="200" as="sourcePoint" />
            <mxPoint x="400" y="160" as="targetPoint" />
          </mxGeometry>
        </mxCell>
      </root>
    </mxGraphModel>
  </diagram>
</mxfile>
